<?xml version="1.0" encoding="UTF-8"?>
<svg xmlns="http://www.w3.org/2000/svg" width="120" height="120" viewBox="0 0 120 120" fill="none">
  
  <g stroke="#cbd5e1" stroke-opacity="0.9" stroke-width="1.5" stroke-linecap="round" stroke-linejoin="round">
    <line x1="55.40" y1="42.62" x2="81.08" y2="54.77" />
    <line x1="55.40" y1="12.00" x2="55.40" y2="42.62" />
    <line x1="55.40" y1="42.62" x2="29.71" y2="54.77" />
  </g>
  
  <g stroke="#0f172a" stroke-opacity="0.85" stroke-width="1.6" stroke-linecap="round" stroke-linejoin="round">
    <line x1="81.08" y1="54.77" x2="84.30" y2="20.25" />
    <line x1="84.30" y1="20.25" x2="55.40" y2="12.00" />
    <line x1="29.71" y1="54.77" x2="55.40" y2="71.45" />
    <line x1="55.40" y1="71.45" x2="55.40" y2="32.05" />
    <line x1="55.40" y1="32.05" x2="26.49" y2="20.25" />
    <line x1="26.49" y1="20.25" x2="29.71" y2="54.77" />
    <line x1="81.08" y1="54.77" x2="55.40" y2="71.45" />
    <line x1="84.30" y1="20.25" x2="55.40" y2="32.05" />
    <line x1="55.40" y1="12.00" x2="26.49" y2="20.25" />
  </g>
  
  <defs>
    <marker id="motion-arrow" markerWidth="6" markerHeight="6" refX="5" refY="3" orient="auto">
      <path d="M0,0 L6,3 L0,6 Z" fill="#9ca3af" />
    </marker>
  </defs>
  <path d="M96.19 56.80 L93.10 58.59 L89.28 60.07 L84.97 61.30 L80.31 62.30 L75.39 63.09 L70.27 63.68 L65.02 64.07 L59.69 64.24 L54.34 64.16 L49.05 63.77 L43.91 63.13 L38.97 62.26 L34.27 61.20 L29.88 59.96 L25.84 58.54 L22.23 56.96 L19.15 55.20 L16.73 53.26 L14.92 51.23 L13.60 49.17 L12.71 47.12 L12.18 45.11 L12.00 43.14 L12.14 41.23 L12.61 39.39 L13.43 37.62 L14.54 35.93 L15.85 34.33 L17.33 32.81 L18.98 31.37 L20.78 30.02 L22.76 28.76 L24.96 27.61 L27.43 26.60 L30.21 25.77 L33.20 25.13 L36.29 24.62 L39.41 24.22 L42.54 23.91 L45.69 23.68 L48.83 23.52 L51.98 23.44 L55.13 23.44 L58.26 23.54 L61.38 23.74 L64.48 24.04 L67.56 24.41 L70.62 24.87" fill="none" stroke="#9ca3af" stroke-opacity="0.8" stroke-width="0.8" stroke-linecap="round" stroke-dasharray="4 4" marker-end="url(#motion-arrow)" />
  <circle cx="96.19" cy="56.80" r="10.73" fill="#7c3aed" />
  
  
</svg>