<?xml version="1.0" encoding="UTF-8"?>
<svg xmlns="http://www.w3.org/2000/svg" width="120" height="120" viewBox="0 0 120 120" fill="none">
  <g stroke="#cbd5e1" stroke-opacity="0.9" stroke-width="1.5" stroke-linecap="round" stroke-linejoin="round">
    <line x1="72.48" y1="48.52" x2="103.12" y2="63.01" />
    <line x1="72.48" y1="12.00" x2="72.48" y2="48.52" />
    <line x1="72.48" y1="48.52" x2="41.84" y2="63.01" />
  </g>
  <g stroke="#0f172a" stroke-opacity="0.85" stroke-width="1.6" stroke-linecap="round" stroke-linejoin="round">
    <line x1="103.12" y1="63.01" x2="106.96" y2="21.84" />
    <line x1="106.96" y1="21.84" x2="72.48" y2="12.00" />
    <line x1="41.84" y1="63.01" x2="72.48" y2="82.91" />
    <line x1="72.48" y1="82.91" x2="72.48" y2="35.92" />
    <line x1="72.48" y1="35.92" x2="38.00" y2="21.84" />
    <line x1="38.00" y1="21.84" x2="41.84" y2="63.01" />
    <line x1="103.12" y1="63.01" x2="72.48" y2="82.91" />
    <line x1="106.96" y1="21.84" x2="72.48" y2="35.92" />
    <line x1="72.48" y1="12.00" x2="38.00" y2="21.84" />
  </g>
  
  <defs>
    <marker id="motion-arrow" markerWidth="6" markerHeight="6" refX="5" refY="3" orient="auto">
      <path d="M0,0 L6,3 L0,6 Z" fill="#9ca3af" />
    </marker>
  </defs>
  <path d="M91.94 87.22 L88.27 83.94 L84.61 80.79 L81.03 77.77 L77.54 74.85 L74.13 72.05 L70.80 69.37 L67.56 66.80 L64.39 64.35 L61.32 62.04 L58.33 59.87 L55.44 57.88 L52.65 56.10 L49.98 54.55 L47.43 53.18 L44.98 51.94 L42.62 50.80 L40.35 49.75 L38.17 48.77 L36.06 47.85 L34.03 46.99 L32.07 46.18 L30.18 45.41 L28.35 44.68 L26.59 43.99 L24.88 43.34 L23.23 42.71 L21.64 42.11 L20.10 41.54 L18.61 40.99 L17.17 40.46 L15.78 39.95 L14.45 39.46 L13.18 38.98 L12.00 38.48 L12.67 38.20 L14.31 38.42 L15.95 38.70 L17.61 39.03 L19.29 39.39 L21.02 39.80 L22.78 40.24 L24.58 40.73 L26.42 41.26 L28.31 41.85 L30.25 42.50 L32.24 43.22 L34.27 44.04 L36.36 44.96" fill="none" stroke="#9ca3af" stroke-opacity="0.8" stroke-width="0.8" stroke-linecap="round" stroke-dasharray="4 4" marker-end="url(#motion-arrow)" />
  <circle cx="91.94" cy="87.22" r="14.60" fill="#7c3aed" />
</svg>