<?xml version="1.0" encoding="UTF-8"?>
<svg xmlns="http://www.w3.org/2000/svg" width="120" height="120" viewBox="0 0 120 120" fill="none">
  
  <g stroke="#cbd5e1" stroke-opacity="0.9" stroke-width="1.5" stroke-linecap="round" stroke-linejoin="round">
    <line x1="56.76" y1="51.01" x2="89.48" y2="66.48" />
    <line x1="56.76" y1="12.00" x2="56.76" y2="51.01" />
    <line x1="56.76" y1="51.01" x2="24.03" y2="66.48" />
  </g>
  
  <g stroke="#0f172a" stroke-opacity="0.85" stroke-width="1.6" stroke-linecap="round" stroke-linejoin="round">
    <line x1="89.48" y1="66.48" x2="93.58" y2="22.51" />
    <line x1="93.58" y1="22.51" x2="56.76" y2="12.00" />
    <line x1="24.03" y1="66.48" x2="56.76" y2="87.73" />
    <line x1="19.93" y1="22.51" x2="24.03" y2="66.48" />
    <line x1="89.48" y1="66.48" x2="56.76" y2="87.73" />
    <line x1="56.76" y1="12.00" x2="19.93" y2="22.51" />
  </g>
  
  <defs>
    <marker id="motion-arrow" markerWidth="6" markerHeight="6" refX="5" refY="3" orient="auto">
      <path d="M0,0 L6,3 L0,6 Z" fill="#9ca3af" />
    </marker>
  </defs>
  <path d="M24.77 60.12 L24.79 61.47 L25.60 62.78 L26.61 64.08 L27.72 65.39 L28.93 66.71 L30.21 68.04 L31.56 69.39 L32.97 70.77 L34.45 72.16 L36.00 73.57 L37.62 75.00 L39.32 76.45 L41.08 77.92 L42.94 79.41 L44.88 80.91 L46.93 82.42 L49.10 83.91 L51.41 85.38 L53.86 86.84 L56.42 88.29 L59.07 89.73 L61.82 91.18 L64.66 92.63 L67.58 94.09 L70.59 95.55 L73.68 97.02 L76.87 98.50 L80.14 99.98 L83.50 101.45 L86.95 102.92 L90.51 104.36 L94.18 105.76 L97.98 107.07 L101.93 108.00 L102.16 105.87 L99.86 103.30 L97.40 100.92 L94.90 98.65 L92.41 96.49 L89.94 94.42 L87.50 92.42 L85.09 90.50 L82.71 88.65 L80.37 86.86 L78.05 85.14 L75.77 83.47 L73.51 81.86 L71.27 80.31" fill="none" stroke="#9ca3af" stroke-opacity="0.8" stroke-width="0.8" stroke-linecap="round" stroke-dasharray="4 4" marker-end="url(#motion-arrow)" />
  <circle cx="24.77" cy="60.12" r="11.61" fill="#7c3aed" />
  
  
  <g stroke="#0f172a" stroke-opacity="0.85" stroke-width="1.6" stroke-linecap="round" stroke-linejoin="round">
    <line x1="56.76" y1="87.73" x2="56.76" y2="37.54" />
    <line x1="56.76" y1="37.54" x2="19.93" y2="22.51" />
    <line x1="93.58" y1="22.51" x2="56.76" y2="37.54" />
  </g>
</svg>