<?xml version="1.0" encoding="UTF-8"?>
<svg xmlns="http://www.w3.org/2000/svg" width="120" height="120" viewBox="0 0 120 120" fill="none">
  <g stroke="#cbd5e1" stroke-opacity="0.9" stroke-width="1.5" stroke-linecap="round" stroke-linejoin="round">
    <line x1="42.88" y1="44.70" x2="70.31" y2="57.68" />
    <line x1="42.88" y1="12.00" x2="42.88" y2="44.70" />
    <line x1="42.88" y1="44.70" x2="15.44" y2="57.68" />
  </g>
  <g stroke="#0f172a" stroke-opacity="0.85" stroke-width="1.6" stroke-linecap="round" stroke-linejoin="round">
    <line x1="70.31" y1="57.68" x2="73.75" y2="20.81" />
    <line x1="73.75" y1="20.81" x2="42.88" y2="12.00" />
    <line x1="15.44" y1="57.68" x2="42.88" y2="75.50" />
    <line x1="42.88" y1="75.50" x2="42.88" y2="33.41" />
    <line x1="42.88" y1="33.41" x2="12.00" y2="20.81" />
    <line x1="12.00" y1="20.81" x2="15.44" y2="57.68" />
    <line x1="70.31" y1="57.68" x2="42.88" y2="75.50" />
    <line x1="73.75" y1="20.81" x2="42.88" y2="33.41" />
    <line x1="42.88" y1="12.00" x2="12.00" y2="20.81" />
  </g>
  
  <defs>
    <marker id="motion-arrow" markerWidth="6" markerHeight="6" refX="5" refY="3" orient="auto">
      <path d="M0,0 L6,3 L0,6 Z" fill="#9ca3af" />
    </marker>
  </defs>
  <path d="M86.45 59.85 L85.17 60.80 L83.86 61.78 L82.52 62.78 L81.16 63.79 L79.77 64.83 L78.35 65.89 L76.90 66.97 L75.42 68.07 L73.91 69.20 L72.37 70.35 L70.79 71.53 L69.18 72.73 L67.53 73.96 L65.85 75.21 L64.13 76.50 L62.36 77.81 L60.56 79.16 L58.72 80.53 L56.83 81.94 L54.89 83.39 L52.91 84.87 L50.88 86.38 L48.80 87.94 L46.66 89.53 L44.47 91.16 L42.23 92.84 L39.92 94.56 L37.55 96.32 L35.12 98.14 L32.62 100.00 L30.06 101.92 L27.42 103.89 L24.70 105.91 L21.90 108.00 L23.11 107.10 L25.88 105.04 L28.56 103.04 L31.17 101.09 L33.70 99.20 L36.17 97.36 L38.58 95.56 L40.92 93.81 L43.20 92.11 L45.42 90.46 L47.58 88.84 L49.70 87.26 L51.76 85.73 L53.77 84.23" fill="none" stroke="#9ca3af" stroke-opacity="0.8" stroke-width="0.8" stroke-linecap="round" stroke-dasharray="4 4" marker-end="url(#motion-arrow)" />
  <circle cx="86.45" cy="59.85" r="11.46" fill="#7c3aed" />
</svg>