<?xml version="1.0" encoding="UTF-8"?>
<svg xmlns="http://www.w3.org/2000/svg" width="120" height="120" viewBox="0 0 120 120" fill="none">
  
  <g fill="#7c3aed" fill-opacity="0.18">
    <polygon points="80.14,22.25 59.72,29.34 84.29,40.43 104.17,29.87" />
    <polygon points="60.71,54.58 81.88,69.28 84.29,40.43 59.72,29.34" />
    <polygon points="99.71,55.30 104.17,29.87 84.29,40.43 81.88,69.28" />
  </g>
  
  <g stroke="#cbd5e1" stroke-opacity="0.9" stroke-width="1.5" stroke-linecap="round" stroke-linejoin="round">
    <line x1="78.86" y1="44.72" x2="99.71" y2="55.30" />
    <line x1="80.14" y1="22.25" x2="78.86" y2="44.72" />
    <line x1="78.86" y1="44.72" x2="60.71" y2="54.58" />
    <line x1="42.48" y1="44.14" x2="56.85" y2="54.51" />
    <line x1="39.55" y1="21.85" x2="42.48" y2="44.14" />
    <line x1="42.48" y1="44.14" x2="18.71" y2="53.80" />
    <line x1="49.37" y1="29.75" x2="60.75" y2="35.53" />
    <line x1="47.79" y1="12.00" x2="49.37" y2="29.75" />
    <line x1="49.37" y1="29.75" x2="32.75" y2="35.15" />
    <line x1="77.06" y1="30.08" x2="92.04" y2="35.95" />
    <line x1="77.85" y1="12.22" x2="77.06" y2="30.08" />
    <line x1="77.06" y1="30.08" x2="63.58" y2="35.56" />
  </g>
  
  <g stroke="#0f172a" stroke-opacity="0.85" stroke-width="1.6" stroke-linecap="round" stroke-linejoin="round">
    <line x1="99.71" y1="55.30" x2="104.17" y2="29.87" />
    <line x1="104.17" y1="29.87" x2="80.14" y2="22.25" />
    <line x1="60.71" y1="54.58" x2="81.88" y2="69.28" />
    <line x1="59.72" y1="29.34" x2="60.71" y2="54.58" />
    <line x1="99.71" y1="55.30" x2="81.88" y2="69.28" />
    <line x1="80.14" y1="22.25" x2="59.72" y2="29.34" />
    <line x1="56.85" y1="54.51" x2="55.33" y2="29.29" />
    <line x1="55.33" y1="29.29" x2="39.55" y2="21.85" />
    <line x1="18.71" y1="53.80" x2="30.98" y2="68.15" />
    <line x1="12.00" y1="28.77" x2="18.71" y2="53.80" />
    <line x1="56.85" y1="54.51" x2="30.98" y2="68.15" />
    <line x1="39.55" y1="21.85" x2="12.00" y2="28.77" />
    <line x1="60.75" y1="35.53" x2="60.06" y2="15.89" />
    <line x1="60.06" y1="15.89" x2="47.79" y2="12.00" />
    <line x1="32.75" y1="35.15" x2="43.28" y2="42.47" />
    <line x1="43.28" y1="42.47" x2="40.53" y2="20.68" />
    <line x1="40.53" y1="20.68" x2="29.35" y2="15.63" />
    <line x1="29.35" y1="15.63" x2="32.75" y2="35.15" />
    <line x1="60.75" y1="35.53" x2="43.28" y2="42.47" />
    <line x1="60.06" y1="15.89" x2="40.53" y2="20.68" />
    <line x1="47.79" y1="12.00" x2="29.35" y2="15.63" />
    <line x1="92.04" y1="35.95" x2="94.42" y2="16.18" />
    <line x1="94.42" y1="16.18" x2="77.85" y2="12.22" />
    <line x1="63.58" y1="35.56" x2="78.65" y2="43.01" />
    <line x1="78.65" y1="43.01" x2="79.87" y2="21.06" />
    <line x1="79.87" y1="21.06" x2="63.16" y2="15.92" />
    <line x1="63.16" y1="15.92" x2="63.58" y2="35.56" />
    <line x1="92.04" y1="35.95" x2="78.65" y2="43.01" />
    <line x1="94.42" y1="16.18" x2="79.87" y2="21.06" />
    <line x1="77.85" y1="12.22" x2="63.16" y2="15.92" />
  </g>
  
  <circle cx="99.57" cy="52.16" r="7.67" fill="#7c3aed" />
  
  
  
  <g stroke="#0f172a" stroke-opacity="0.85" stroke-width="1.6" stroke-linecap="round" stroke-linejoin="round">
    <line x1="81.88" y1="69.28" x2="84.29" y2="40.43" />
    <line x1="84.29" y1="40.43" x2="59.72" y2="29.34" />
    <line x1="104.17" y1="29.87" x2="84.29" y2="40.43" />
    <line x1="30.98" y1="68.15" x2="24.74" y2="39.55" />
    <line x1="24.74" y1="39.55" x2="12.00" y2="28.77" />
    <line x1="55.33" y1="29.29" x2="24.74" y2="39.55" />
  </g>
</svg>