<?xml version="1.0" encoding="UTF-8"?>
<svg xmlns="http://www.w3.org/2000/svg" width="120" height="120" viewBox="0 0 120 120" fill="none">
  
  <g stroke="#cbd5e1" stroke-opacity="0.9" stroke-width="1.5" stroke-linecap="round" stroke-linejoin="round">
    <line x1="78.28" y1="44.36" x2="101.53" y2="55.35" />
    <line x1="80.61" y1="22.10" x2="78.28" y2="44.36" />
    <line x1="78.28" y1="44.36" x2="61.98" y2="55.35" />
    <line x1="41.72" y1="44.36" x2="58.02" y2="55.35" />
    <line x1="39.39" y1="22.10" x2="41.72" y2="44.36" />
    <line x1="41.72" y1="44.36" x2="18.47" y2="55.35" />
    <line x1="46.47" y1="29.31" x2="58.61" y2="35.05" />
    <line x1="45.24" y1="12.00" x2="46.47" y2="29.31" />
    <line x1="46.47" y1="29.31" x2="30.72" y2="35.05" />
    <line x1="73.53" y1="29.31" x2="89.28" y2="35.05" />
    <line x1="74.76" y1="12.00" x2="73.53" y2="29.31" />
    <line x1="73.53" y1="29.31" x2="61.39" y2="35.05" />
  </g>
  
  <g stroke="#0f172a" stroke-opacity="0.85" stroke-width="1.6" stroke-linecap="round" stroke-linejoin="round">
    <line x1="101.53" y1="55.35" x2="108.00" y2="29.91" />
    <line x1="108.00" y1="29.91" x2="80.61" y2="22.10" />
    <line x1="62.29" y1="29.91" x2="61.98" y2="55.35" />
    <line x1="80.61" y1="22.10" x2="62.29" y2="29.91" />
    <line x1="58.02" y1="55.35" x2="57.71" y2="29.91" />
    <line x1="57.71" y1="29.91" x2="39.39" y2="22.10" />
    <line x1="12.00" y1="29.91" x2="18.47" y2="55.35" />
    <line x1="39.39" y1="22.10" x2="12.00" y2="29.91" />
    <line x1="58.61" y1="35.05" x2="58.46" y2="15.77" />
    <line x1="58.46" y1="15.77" x2="45.24" y2="12.00" />
    <line x1="30.72" y1="35.05" x2="42.29" y2="42.56" />
    <line x1="42.29" y1="42.56" x2="40.10" y2="20.86" />
    <line x1="40.10" y1="20.86" x2="27.64" y2="15.77" />
    <line x1="27.64" y1="15.77" x2="30.72" y2="35.05" />
    <line x1="58.61" y1="35.05" x2="42.29" y2="42.56" />
    <line x1="58.46" y1="15.77" x2="40.10" y2="20.86" />
    <line x1="45.24" y1="12.00" x2="27.64" y2="15.77" />
    <line x1="89.28" y1="35.05" x2="92.36" y2="15.77" />
    <line x1="92.36" y1="15.77" x2="74.76" y2="12.00" />
    <line x1="61.39" y1="35.05" x2="77.71" y2="42.56" />
    <line x1="77.71" y1="42.56" x2="79.90" y2="20.86" />
    <line x1="79.90" y1="20.86" x2="61.54" y2="15.77" />
    <line x1="61.54" y1="15.77" x2="61.39" y2="35.05" />
    <line x1="89.28" y1="35.05" x2="77.71" y2="42.56" />
    <line x1="92.36" y1="15.77" x2="79.90" y2="20.86" />
    <line x1="74.76" y1="12.00" x2="61.54" y2="15.77" />
  </g>
  
  <defs>
    <marker id="motion-arrow" markerWidth="6" markerHeight="6" refX="5" refY="3" orient="auto">
      <path d="M0,0 L6,3 L0,6 Z" fill="#9ca3af" />
    </marker>
  </defs>
  <path d="M85.98 44.74 L83.98 46.01 L81.60 47.16 L78.90 48.21 L75.95 49.15 L72.76 49.97 L69.37 50.64 L65.82 51.15 L62.13 51.45 L58.40 51.47 L54.70 51.21 L51.13 50.73 L47.71 50.07 L44.49 49.28 L41.50 48.35 L38.77 47.32 L36.34 46.18 L34.28 44.93 L32.67 43.57 L31.45 42.15 L30.57 40.72 L29.98 39.30 L29.65 37.91 L29.55 36.56 L29.69 35.24 L30.09 33.98 L30.78 32.76 L31.76 31.61 L32.93 30.54 L34.24 29.53 L35.66 28.59 L37.16 27.72 L38.74 26.92 L40.40 26.18 L42.15 25.52 L44.02 24.95 L45.97 24.46 L47.96 24.05 L49.98 23.69 L52.01 23.40 L54.06 23.16 L56.13 22.98 L58.21 22.86 L60.30 22.83 L62.39 22.89 L64.46 23.02 L66.52 23.22 L68.57 23.48 L70.60 23.79" fill="none" stroke="#9ca3af" stroke-opacity="0.8" stroke-width="0.8" stroke-linecap="round" stroke-dasharray="4 4" marker-end="url(#motion-arrow)" />
  <circle cx="85.98" cy="44.74" r="6.83" fill="#7c3aed" />
  
  
  <g stroke="#0f172a" stroke-opacity="0.85" stroke-width="1.6" stroke-linecap="round" stroke-linejoin="round">
    <line x1="61.98" y1="55.35" x2="86.86" y2="71.51" />
    <line x1="86.86" y1="71.51" x2="92.23" y2="42.13" />
    <line x1="92.23" y1="42.13" x2="62.29" y2="29.91" />
    <line x1="101.53" y1="55.35" x2="86.86" y2="71.51" />
    <line x1="108.00" y1="29.91" x2="92.23" y2="42.13" />
    <line x1="18.47" y1="55.35" x2="33.14" y2="71.51" />
    <line x1="33.14" y1="71.51" x2="27.77" y2="42.13" />
    <line x1="27.77" y1="42.13" x2="12.00" y2="29.91" />
    <line x1="58.02" y1="55.35" x2="33.14" y2="71.51" />
    <line x1="57.71" y1="29.91" x2="27.77" y2="42.13" />
  </g>
</svg>