<?xml version="1.0" encoding="UTF-8"?>
<svg xmlns="http://www.w3.org/2000/svg" width="120" height="120" viewBox="0 0 120 120" fill="none">
  
  <g stroke="#cbd5e1" stroke-opacity="0.9" stroke-width="1.5" stroke-linecap="round" stroke-linejoin="round">
    <line x1="37.19" y1="35.64" x2="54.27" y2="43.72" />
    <line x1="35.77" y1="12.00" x2="37.19" y2="35.64" />
    <line x1="37.19" y1="35.64" x2="15.94" y2="43.72" />
    <line x1="74.13" y1="22.95" x2="71.74" y2="51.98" />
  </g>
  
  <g stroke="#0f172a" stroke-opacity="0.85" stroke-width="1.6" stroke-linecap="round" stroke-linejoin="round">
    <line x1="54.27" y1="43.72" x2="54.48" y2="17.34" />
    <line x1="54.48" y1="17.34" x2="35.77" y2="12.00" />
    <line x1="15.94" y1="43.72" x2="32.35" y2="54.38" />
    <line x1="29.79" y1="24.60" x2="12.00" y2="17.34" />
    <line x1="12.00" y1="17.34" x2="15.94" y2="43.72" />
    <line x1="54.27" y1="43.72" x2="32.35" y2="54.38" />
    <line x1="54.48" y1="17.34" x2="29.79" y2="24.60" />
    <line x1="35.77" y1="12.00" x2="12.00" y2="17.34" />
  </g>
  
  <circle cx="52.35" cy="39.33" r="6.62" fill="#7c3aed" />
  
  <g stroke="#cbd5e1" stroke-opacity="0.9" stroke-width="1.5" stroke-linecap="round" stroke-linejoin="round">
    <line x1="71.74" y1="51.98" x2="100.78" y2="65.71" />
    <line x1="71.74" y1="51.98" x2="49.81" y2="65.71" />
  </g>
  
  <g stroke="#0f172a" stroke-opacity="0.85" stroke-width="1.6" stroke-linecap="round" stroke-linejoin="round">
    <line x1="32.35" y1="54.38" x2="29.79" y2="24.60" />
    <line x1="100.78" y1="65.71" x2="108.00" y2="32.62" />
    <line x1="108.00" y1="32.62" x2="74.13" y2="22.95" />
    <line x1="49.81" y1="65.71" x2="80.44" y2="85.61" />
    <line x1="80.44" y1="85.61" x2="85.74" y2="47.44" />
    <line x1="85.74" y1="47.44" x2="49.43" y2="32.62" />
    <line x1="49.43" y1="32.62" x2="49.81" y2="65.71" />
    <line x1="100.78" y1="65.71" x2="80.44" y2="85.61" />
    <line x1="108.00" y1="32.62" x2="85.74" y2="47.44" />
    <line x1="74.13" y1="22.95" x2="49.43" y2="32.62" />
  </g>
</svg>