<?xml version="1.0" encoding="UTF-8"?>
<svg xmlns="http://www.w3.org/2000/svg" width="120" height="120" viewBox="0 0 120 120" fill="none">
  <defs>
    <marker id="arrowhead" markerWidth="8" markerHeight="8" refX="6.2" refY="4" orient="auto" markerUnits="strokeWidth">
      <path d="M1 1.2 6.5 4 1 6.8" fill="none" stroke="#64748b" stroke-width="1.3" stroke-linecap="round" stroke-linejoin="round" />
    </marker>
  </defs>

  <style>
    .cube-face {
      fill: #ffffff;
      fill-opacity: 0.16;
    }
    .cube-back {
      stroke: #cbd5e1;
      stroke-opacity: 0.58;
      stroke-width: 0.85;
      stroke-linecap: round;
      stroke-linejoin: round;
      vector-effect: non-scaling-stroke;
    }
    .cube-front {
      stroke: #0f1c2e;
      stroke-opacity: 0.66;
      stroke-width: 0.95;
      stroke-linecap: round;
      stroke-linejoin: round;
      vector-effect: non-scaling-stroke;
    }
    .arrow {
      stroke: #64748b;
      stroke-opacity: 0.88;
      stroke-width: 1.35;
      stroke-linecap: round;
      vector-effect: non-scaling-stroke;
    }
    .label {
      fill: #475569;
      font-family: -apple-system, BlinkMacSystemFont, "Segoe UI", sans-serif;
      font-size: 11px;
      font-weight: 600;
      text-anchor: middle;
    }
  </style>

  <g aria-label="原因">
    <g class="cube-face">
      <polygon points="17 42 28 34 48 39 37 48" />
      <polygon points="17 42 37 48 37 70 17 63" />
      <polygon points="37 48 48 39 48 61 37 70" />
    </g>
    <g class="cube-back">
      <path d="M28 34v22M28 56 17 63M28 56l20 5" />
    </g>
    <g class="cube-front">
      <path d="M17 42 28 34 48 39 48 61 37 70 17 63Z" />
      <path d="M37 48 48 39M37 48 17 42M37 48v22" />
    </g>
    <circle cx="31" cy="54" r="4.8" fill="#7c3aed" fill-opacity="0.9" />
    <text class="label" x="32.5" y="91">原因</text>
  </g>

  <path class="arrow" d="M55 55H68" marker-end="url(#arrowhead)" />

  <g aria-label="结果">
    <g class="cube-face">
      <polygon points="72 42 83 34 103 39 92 48" />
      <polygon points="72 42 92 48 92 70 72 63" />
      <polygon points="92 48 103 39 103 61 92 70" />
    </g>
    <g class="cube-back">
      <path d="M83 34v22M83 56 72 63M83 56l20 5" />
    </g>
    <g class="cube-front">
      <path d="M72 42 83 34 103 39 103 61 92 70 72 63Z" />
      <path d="M92 48 103 39M92 48 72 42M92 48v22" />
    </g>
    <text class="label" x="87.5" y="91">结果</text>
  </g>
</svg>
