<?xml version="1.0" encoding="UTF-8"?>
<svg xmlns="http://www.w3.org/2000/svg" width="120" height="120" viewBox="0 0 120 120" fill="none">
  
  <g fill="#ffffff" fill-opacity="0.12">
    <polygon points="34.00,23.50 73.50,12.00 105.50,27.50 64.00,42.50" />
    <polygon points="18.00,43.00 64.00,42.50 64.00,108.00 18.00,80.50" />
    <polygon points="64.00,42.50 105.50,27.50 101.00,83.00 64.00,108.00" />
  </g>
  
  <g fill="#cbd5e1" fill-opacity="0.12">
    <polygon points="37.50,54.00 48.50,50.00 58.50,55.00 47.50,59.50" />
    <polygon points="47.50,59.50 58.50,55.00 58.50,69.50 47.50,75.00" />
    <polygon points="37.50,54.00 47.50,59.50 47.50,75.00 37.50,68.50" />
    <polygon points="67.00,49.00 78.00,45.00 88.00,50.00 77.00,54.50" />
    <polygon points="77.00,54.50 88.00,50.00 88.00,64.50 77.00,70.00" />
    <polygon points="67.00,49.00 77.00,54.50 77.00,70.00 67.00,63.50" />
    <polygon points="57.50,73.00 68.50,69.00 78.50,74.00 67.50,78.50" />
    <polygon points="67.50,78.50 78.50,74.00 78.50,88.50 67.50,94.00" />
    <polygon points="57.50,73.00 67.50,78.50 67.50,94.00 57.50,87.50" />
  </g>
  
  <g fill="#7c3aed" fill-opacity="0.18">
    <polygon points="43.00,37.00 54.00,33.00 64.00,38.00 53.00,42.50" />
    <polygon points="53.00,42.50 64.00,38.00 64.00,52.50 53.00,58.00" />
    <polygon points="43.00,37.00 53.00,42.50 53.00,58.00 43.00,51.50" />
  </g>
  
  <g stroke="#cbd5e1" stroke-opacity="0.9" stroke-width="1.5" stroke-linecap="round" stroke-linejoin="round">
    <line x1="64.00" y1="42.50" x2="105.50" y2="27.50" />
    <line x1="64.00" y1="42.50" x2="64.00" y2="108.00" />
    <line x1="18.00" y1="43.00" x2="64.00" y2="42.50" />
    <line x1="34.00" y1="23.50" x2="64.00" y2="42.50" />
    <line x1="73.50" y1="12.00" x2="64.00" y2="42.50" />
  </g>
  
  <g stroke="#cbd5e1" stroke-opacity="0.9" stroke-width="1.5" stroke-linecap="round" stroke-linejoin="round">
    <line x1="47.50" y1="59.50" x2="58.50" y2="55.00" />
    <line x1="47.50" y1="59.50" x2="37.50" y2="54.00" />
    <line x1="47.50" y1="59.50" x2="47.50" y2="75.00" />
    <line x1="77.00" y1="54.50" x2="88.00" y2="50.00" />
    <line x1="77.00" y1="54.50" x2="67.00" y2="49.00" />
    <line x1="77.00" y1="54.50" x2="77.00" y2="70.00" />
    <line x1="67.50" y1="78.50" x2="78.50" y2="74.00" />
    <line x1="67.50" y1="78.50" x2="57.50" y2="73.00" />
    <line x1="67.50" y1="78.50" x2="67.50" y2="94.00" />
    <line x1="53.00" y1="42.50" x2="64.00" y2="38.00" />
    <line x1="53.00" y1="42.50" x2="43.00" y2="37.00" />
    <line x1="53.00" y1="42.50" x2="53.00" y2="58.00" />
  </g>
  
  <g stroke="#0f172a" stroke-opacity="0.85" stroke-width="1.6" stroke-linecap="round" stroke-linejoin="round">
    <line x1="18.00" y1="43.00" x2="18.00" y2="80.50" />
    <line x1="18.00" y1="80.50" x2="64.00" y2="108.00" />
    <line x1="64.00" y1="108.00" x2="101.00" y2="83.00" />
    <line x1="101.00" y1="83.00" x2="105.50" y2="27.50" />
    <line x1="105.50" y1="27.50" x2="73.50" y2="12.00" />
    <line x1="73.50" y1="12.00" x2="34.00" y2="23.50" />
    <line x1="34.00" y1="23.50" x2="18.00" y2="43.00" />
  </g>
  
  <g stroke="#0f172a" stroke-opacity="0.85" stroke-width="1.6" stroke-linecap="round" stroke-linejoin="round">
    <line x1="37.50" y1="54.00" x2="48.50" y2="50.00" />
    <line x1="48.50" y1="50.00" x2="58.50" y2="55.00" />
    <line x1="58.50" y1="55.00" x2="58.50" y2="69.50" />
    <line x1="58.50" y1="69.50" x2="47.50" y2="75.00" />
    <line x1="47.50" y1="75.00" x2="37.50" y2="68.50" />
    <line x1="37.50" y1="68.50" x2="37.50" y2="54.00" />
    <line x1="67.00" y1="49.00" x2="78.00" y2="45.00" />
    <line x1="78.00" y1="45.00" x2="88.00" y2="50.00" />
    <line x1="88.00" y1="50.00" x2="88.00" y2="64.50" />
    <line x1="88.00" y1="64.50" x2="77.00" y2="70.00" />
    <line x1="77.00" y1="70.00" x2="67.00" y2="63.50" />
    <line x1="67.00" y1="63.50" x2="67.00" y2="49.00" />
    <line x1="57.50" y1="73.00" x2="68.50" y2="69.00" />
    <line x1="68.50" y1="69.00" x2="78.50" y2="74.00" />
    <line x1="78.50" y1="74.00" x2="78.50" y2="88.50" />
    <line x1="78.50" y1="88.50" x2="67.50" y2="94.00" />
    <line x1="67.50" y1="94.00" x2="57.50" y2="87.50" />
    <line x1="57.50" y1="87.50" x2="57.50" y2="73.00" />
  </g>
  
  <g stroke="#0f172a" stroke-opacity="0.85" stroke-width="1.6" stroke-linecap="round" stroke-linejoin="round">
    <line x1="43.00" y1="37.00" x2="54.00" y2="33.00" />
    <line x1="54.00" y1="33.00" x2="64.00" y2="38.00" />
    <line x1="64.00" y1="38.00" x2="64.00" y2="52.50" />
    <line x1="64.00" y1="52.50" x2="53.00" y2="58.00" />
    <line x1="53.00" y1="58.00" x2="43.00" y2="51.50" />
    <line x1="43.00" y1="51.50" x2="43.00" y2="37.00" />
  </g>
</svg>
