<?xml version="1.0" encoding="UTF-8"?>
<svg xmlns="http://www.w3.org/2000/svg" width="120" height="120" viewBox="0 0 120 120" fill="none">
  <style>
    .back-line {
      stroke: #cbd5e1;
      stroke-opacity: 0.55;
      stroke-width: 0.9;
      stroke-linecap: round;
      stroke-linejoin: round;
      vector-effect: non-scaling-stroke;
    }
    .front-line {
      stroke: #0f1c2e;
      stroke-opacity: 0.65;
      stroke-width: 0.95;
      stroke-linecap: round;
      stroke-linejoin: round;
      vector-effect: non-scaling-stroke;
    }
    .soft-line {
      stroke: #cbd5e1;
      stroke-opacity: 0.58;
      stroke-width: 0.8;
      stroke-linecap: round;
      stroke-linejoin: round;
      vector-effect: non-scaling-stroke;
    }
    .ground {
      fill: #e5e7eb;
      fill-opacity: 0.62;
    }
  </style>

  <polygon class="ground" points="0 74 60 51 120 74 120 120 0 120" />

  <g fill="#ffffff" fill-opacity="0.12">
    <polygon points="26.54 41.15 60 31.6 93.46 41.15 60 67.04" />
    <polygon points="26.54 41.15 30.27 81.1 60 100.4 60 67.04" />
    <polygon points="93.46 41.15 89.73 81.1 60 100.4 60 67.04" />
  </g>

  <g class="back-line">
    <line x1="60" y1="67.04" x2="89.73" y2="81.1" />
    <line x1="60" y1="31.6" x2="60" y2="67.04" />
    <line x1="60" y1="67.04" x2="30.27" y2="81.1" />
  </g>

  <g class="front-line">
    <line x1="89.73" y1="81.1" x2="93.46" y2="41.15" />
    <line x1="93.46" y1="41.15" x2="60" y2="31.6" />
    <line x1="30.27" y1="81.1" x2="60" y2="100.4" />
    <line x1="26.54" y1="41.15" x2="30.27" y2="81.1" />
    <line x1="89.73" y1="81.1" x2="60" y2="100.4" />
    <line x1="60" y1="31.6" x2="26.54" y2="41.15" />
    <line x1="60" y1="100.4" x2="60" y2="67.04" />
    <line x1="60" y1="67.04" x2="26.54" y2="41.15" />
    <line x1="93.46" y1="41.15" x2="60" y2="67.04" />
  </g>

  <g fill="#ffffff" fill-opacity="0.16">
    <polygon points="39 56 49 52 58 57 48 61" />
    <polygon points="48 61 58 57 58 69 48 74" />
    <polygon points="39 56 48 61 48 74 39 68" />
    <polygon points="67 53 77 49 86 54 76 58" />
    <polygon points="76 58 86 54 86 66 76 71" />
    <polygon points="67 53 76 58 76 71 67 65" />
    <polygon points="57 74 67 70 76 75 66 79" />
    <polygon points="66 79 76 75 76 87 66 92" />
    <polygon points="57 74 66 79 66 92 57 86" />
  </g>

  <g class="soft-line">
    <path d="M39 56 49 52 58 57 58 69 48 74 39 68Z" />
    <path d="M48 61 58 57M48 61 39 56M48 61v13" />
    <path d="M67 53 77 49 86 54 86 66 76 71 67 65Z" />
    <path d="M76 58 86 54M76 58 67 53M76 58v13" />
    <path d="M57 74 67 70 76 75 76 87 66 92 57 86Z" />
    <path d="M66 79 76 75M66 79 57 74M66 79v13" />
  </g>

  <g fill="#7c3aed" fill-opacity="0.28">
    <polygon points="45 38 55 34 64 39 54 43" />
    <polygon points="54 43 64 39 64 51 54 56" />
    <polygon points="45 38 54 43 54 56 45 50" />
  </g>

  <g class="front-line">
    <path d="M45 38 55 34 64 39 64 51 54 56 45 50Z" />
    <path d="M54 43 64 39M54 43 45 38M54 43v13" />
  </g>
</svg>
