<?xml version="1.0" encoding="UTF-8"?>
<svg xmlns="http://www.w3.org/2000/svg" width="120" height="120" viewBox="0 0 120 120" fill="none">
  <rect width="120" height="120" fill="#ffffff"/>

  <!-- Large transparent group container -->
  <g fill="#f8fafc" fill-opacity="0.18">
    <polygon points="36,30 76,18 98,32 58,45"/>
    <polygon points="58,45 98,32 98,80 58,96"/>
    <polygon points="20,48 58,45 58,96 20,78"/>
  </g>
  <g stroke="#94a3b8" stroke-width="1.45" stroke-linecap="round" stroke-linejoin="round" opacity="0.68">
    <path d="M36 30 76 18 98 32 58 45 20 48 36 30Z"/>
    <path d="M20 48v30l38 18 40-16V32"/>
    <path d="M58 45v51"/>
    <path d="M76 18v31"/>
    <path d="M36 30v36"/>
  </g>
  <g stroke="#cbd5e1" stroke-width="1.1" stroke-linecap="round" stroke-linejoin="round" opacity="0.45">
    <path d="M20 78 58 64 98 80"/>
    <path d="M36 66 76 49 98 62"/>
  </g>

  <!-- Included items inside the container -->
  <g stroke-linecap="round" stroke-linejoin="round">
    <g opacity="0.78">
      <polygon points="37,56 49,52 58,57 46,62" fill="#e2e8f0" fill-opacity="0.62"/>
      <polygon points="46,62 58,57 58,70 46,75" fill="#cbd5e1" fill-opacity="0.46"/>
      <polygon points="37,56 46,62 46,75 37,69" fill="#f1f5f9" fill-opacity="0.62"/>
      <path d="M37 56 49 52 58 57 58 70 46 75 37 69Z M46 62v13 M46 62 58 57 M46 62 37 56" stroke="#94a3b8" stroke-width="0.95" opacity="0.74"/>
    </g>

    <g opacity="0.78">
      <polygon points="65,47 77,43 86,48 74,53" fill="#e2e8f0" fill-opacity="0.62"/>
      <polygon points="74,53 86,48 86,61 74,66" fill="#cbd5e1" fill-opacity="0.46"/>
      <polygon points="65,47 74,53 74,66 65,60" fill="#f1f5f9" fill-opacity="0.62"/>
      <path d="M65 47 77 43 86 48 86 61 74 66 65 60Z M74 53v13 M74 53 86 48 M74 53 65 47" stroke="#94a3b8" stroke-width="0.95" opacity="0.74"/>
    </g>

    <g opacity="0.78">
      <polygon points="58,72 70,68 79,73 67,78" fill="#e2e8f0" fill-opacity="0.62"/>
      <polygon points="67,78 79,73 79,86 67,91" fill="#cbd5e1" fill-opacity="0.46"/>
      <polygon points="58,72 67,78 67,91 58,85" fill="#f1f5f9" fill-opacity="0.62"/>
      <path d="M58 72 70 68 79 73 79 86 67 91 58 85Z M67 78v13 M67 78 79 73 M67 78 58 72" stroke="#94a3b8" stroke-width="0.95" opacity="0.74"/>
    </g>

    <g>
      <polygon points="43,40 55,36 64,41 52,46" fill="#a78bfa" fill-opacity="0.76"/>
      <polygon points="52,46 64,41 64,54 52,59" fill="#7c3aed" fill-opacity="0.56"/>
      <polygon points="43,40 52,46 52,59 43,53" fill="#c4b5fd" fill-opacity="0.76"/>
      <path d="M43 40 55 36 64 41 64 54 52 59 43 53Z M52 46v13 M52 46 64 41 M52 46 43 40" stroke="#6d28d9" stroke-width="1.15" opacity="0.9"/>
    </g>
  </g>

  <!-- Front edges make the whole boundary unmistakable. -->
  <g stroke="#334155" stroke-width="1.55" stroke-linecap="round" stroke-linejoin="round" opacity="0.82">
    <path d="M20 48v30l38 18 40-16V32"/>
    <path d="M20 48 58 45 98 32"/>
    <path d="M58 45v51"/>
  </g>
</svg>
