<?xml version="1.0" encoding="UTF-8"?>
<svg xmlns="http://www.w3.org/2000/svg" width="120" height="120" viewBox="0 0 120 120" fill="none">
  <rect width="120" height="120" fill="#ffffff"/>
  <defs>
    <g id="cube">
      <polygon points="5,11 18,4 47,4 34,11" fill="#ffffff" fill-opacity="0.10"/>
      <polygon points="34,11 47,4 47,37 34,45" fill="#f8fafc" fill-opacity="0.16"/>
      <polygon points="5,11 34,11 34,45 5,45" fill="#ffffff" fill-opacity="0.14"/>
      <path d="M18 4v33M18 4 5 11M18 4h29" stroke="#cbd5e1" stroke-opacity="0.58" stroke-width="0.8" stroke-linecap="round" stroke-linejoin="round" vector-effect="non-scaling-stroke"/>
      <path d="M5 11h29L47 4v33l-13 8H5V11Z" stroke="#0f172a" stroke-opacity="0.62" stroke-width="1.05" stroke-linecap="round" stroke-linejoin="round" vector-effect="non-scaling-stroke"/>
      <path d="M34 11v34M34 11 47 4M34 45l13-8" stroke="#0f172a" stroke-opacity="0.62" stroke-width="1.05" stroke-linecap="round" stroke-linejoin="round" vector-effect="non-scaling-stroke"/>
    </g>
    <g id="cube-purple">
      <polygon points="5,11 18,4 47,4 34,11" fill="#a78bfa" fill-opacity="0.60"/>
      <polygon points="34,11 47,4 47,37 34,45" fill="#6d28d9" fill-opacity="0.44"/>
      <polygon points="5,11 34,11 34,45 5,45" fill="#7c3aed" fill-opacity="0.54"/>
      <path d="M5 11h29L47 4v33l-13 8H5V11Z" stroke="#6d28d9" stroke-opacity="0.92" stroke-width="1.08" stroke-linecap="round" stroke-linejoin="round" vector-effect="non-scaling-stroke"/>
      <path d="M34 11v34M34 11 47 4M34 45l13-8" stroke="#6d28d9" stroke-opacity="0.92" stroke-width="1.08" stroke-linecap="round" stroke-linejoin="round" vector-effect="non-scaling-stroke"/>
    </g>
  </defs>

  <path d="M18 87H102" stroke="#e5e7eb" stroke-width="0.8" stroke-linecap="round" opacity="0.55"/>

  <g transform="translate(10 39)" opacity="0.92"><use href="#cube"/></g>
  <g transform="translate(64 39)" opacity="0.92"><use href="#cube"/></g>
  <g transform="translate(37 39)">
    <use href="#cube-purple"/>
    <text x="20" y="28" fill="#ffffff" font-family="ui-sans-serif, system-ui, -apple-system, BlinkMacSystemFont, 'Segoe UI', sans-serif" font-size="12" font-weight="800" text-anchor="middle" dominant-baseline="middle">A</text>
  </g>
</svg>
