<?xml version="1.0" encoding="UTF-8"?>
<svg xmlns="http://www.w3.org/2000/svg" width="120" height="120" viewBox="0 0 120 120" fill="none">
  <g stroke="#cbd5e1" stroke-opacity="0.9" stroke-width="1.5" stroke-linecap="round" stroke-linejoin="round">
    <line x1="47.18" y1="50.05" x2="78.44" y2="64.83" />
    <line x1="47.18" y1="12.78" x2="47.18" y2="50.05" />
    <line x1="47.18" y1="50.05" x2="15.92" y2="64.83" />
  </g>
  <g stroke="#0f172a" stroke-opacity="0.85" stroke-width="1.6" stroke-linecap="round" stroke-linejoin="round">
    <line x1="78.44" y1="64.83" x2="82.36" y2="22.82" />
    <line x1="82.36" y1="22.82" x2="47.18" y2="12.78" />
    <line x1="15.92" y1="64.83" x2="47.18" y2="85.13" />
    <line x1="47.18" y1="85.13" x2="47.18" y2="37.18" />
    <line x1="47.18" y1="37.18" x2="12.00" y2="22.82" />
    <line x1="12.00" y1="22.82" x2="15.92" y2="64.83" />
    <line x1="78.44" y1="64.83" x2="47.18" y2="85.13" />
    <line x1="82.36" y1="22.82" x2="47.18" y2="37.18" />
    <line x1="47.18" y1="12.78" x2="12.00" y2="22.82" />
  </g>
  
  <defs>
    <marker id="motion-arrow" markerWidth="6" markerHeight="6" refX="5" refY="3" orient="auto">
      <path d="M0,0 L6,3 L0,6 Z" fill="#9ca3af" />
    </marker>
  </defs>
  <path d="M93.78 49.86 L92.89 48.03 L91.61 46.35 L90.28 44.72 L88.92 43.14 L87.55 41.59 L86.17 40.07 L84.78 38.58 L83.40 37.12 L82.01 35.68 L80.62 34.27 L79.23 32.88 L77.84 31.52 L76.45 30.19 L75.06 28.90 L73.67 27.64 L72.26 26.43 L70.85 25.28 L69.43 24.20 L68.00 23.18 L66.57 22.20 L65.16 21.26 L63.75 20.36 L62.34 19.48 L60.95 18.64 L59.57 17.82 L58.21 17.03 L56.85 16.26 L55.50 15.52 L54.17 14.81 L52.85 14.13 L51.53 13.49 L50.23 12.89 L48.94 12.37 L47.66 12.00 L47.57 13.04 L48.59 14.38 L49.66 15.64 L50.77 16.87 L51.89 18.08 L53.03 19.28 L54.19 20.46 L55.36 21.65 L56.55 22.83 L57.75 24.00 L58.97 25.18 L60.20 26.34 L61.45 27.51 L62.72 28.67" fill="none" stroke="#9ca3af" stroke-opacity="0.8" stroke-width="0.8" stroke-linecap="round" stroke-dasharray="4 4" marker-end="url(#motion-arrow)" />
  <circle cx="93.78" cy="49.86" r="12.92" fill="#7c3aed" />
</svg>