<?xml version="1.0" encoding="UTF-8"?>
<svg xmlns="http://www.w3.org/2000/svg" width="120" height="120" viewBox="0 0 120 120" fill="none">
  <g stroke="#cbd5e1" stroke-opacity="0.9" stroke-width="1.5" stroke-linecap="round" stroke-linejoin="round">
    <line x1="58.68" y1="61.45" x2="100.16" y2="81.06" />
    <line x1="58.68" y1="12.00" x2="58.68" y2="61.45" />
    <line x1="58.68" y1="61.45" x2="17.20" y2="81.06" />
  </g>
  <g stroke="#0f172a" stroke-opacity="0.85" stroke-width="1.6" stroke-linecap="round" stroke-linejoin="round">
    <line x1="100.16" y1="81.06" x2="105.36" y2="25.32" />
    <line x1="105.36" y1="25.32" x2="58.68" y2="12.00" />
    <line x1="17.20" y1="81.06" x2="58.68" y2="108.00" />
    <line x1="58.68" y1="108.00" x2="58.68" y2="44.38" />
    <line x1="58.68" y1="44.38" x2="12.00" y2="25.32" />
    <line x1="12.00" y1="25.32" x2="17.20" y2="81.06" />
    <line x1="100.16" y1="81.06" x2="58.68" y2="108.00" />
    <line x1="105.36" y1="25.32" x2="58.68" y2="44.38" />
    <line x1="58.68" y1="12.00" x2="12.00" y2="25.32" />
  </g>
  
  <defs>
    <marker id="motion-arrow" markerWidth="6" markerHeight="6" refX="5" refY="3" orient="auto">
      <path d="M0,0 L6,3 L0,6 Z" fill="#9ca3af" />
    </marker>
  </defs>
  <path d="M54.21 56.84 L86.22 42.50" fill="none" stroke="#9ca3af" stroke-opacity="0.8" stroke-width="0.8" stroke-linecap="round" stroke-dasharray="4 4" marker-end="url(#motion-arrow)" />
  <circle cx="86.22" cy="42.50" r="11.52" fill="#7c3aed" />
</svg>