<?xml version="1.0" encoding="UTF-8"?>
<svg xmlns="http://www.w3.org/2000/svg" width="120" height="120" viewBox="0 0 120 120" fill="none">
  <g stroke="#cbd5e1" stroke-opacity="0.9" stroke-width="1.5" stroke-linecap="round" stroke-linejoin="round">
    <line x1="42.39" y1="79.06" x2="68.18" y2="91.26" />
    <line x1="42.39" y1="48.33" x2="42.39" y2="79.06" />
    <line x1="42.39" y1="79.06" x2="16.61" y2="91.26" />
  </g>
  <g stroke="#0f172a" stroke-opacity="0.85" stroke-width="1.6" stroke-linecap="round" stroke-linejoin="round">
    <line x1="68.18" y1="91.26" x2="71.41" y2="56.61" />
    <line x1="71.41" y1="56.61" x2="42.39" y2="48.33" />
    <line x1="16.61" y1="91.26" x2="42.39" y2="108.00" />
    <line x1="42.39" y1="108.00" x2="42.39" y2="68.45" />
    <line x1="42.39" y1="68.45" x2="13.38" y2="56.61" />
    <line x1="13.38" y1="56.61" x2="16.61" y2="91.26" />
    <line x1="68.18" y1="91.26" x2="42.39" y2="108.00" />
    <line x1="71.41" y1="56.61" x2="42.39" y2="68.45" />
    <line x1="42.39" y1="48.33" x2="13.38" y2="56.61" />
  </g>
  
  <defs>
    <marker id="motion-arrow" markerWidth="6" markerHeight="6" refX="5" refY="3" orient="auto">
      <path d="M0,0 L6,3 L0,6 Z" fill="#9ca3af" />
    </marker>
  </defs>
  <path d="M42.39 31.31 L40.15 30.93 L37.96 30.60 L35.84 30.30 L33.77 30.03 L31.76 29.78 L29.80 29.54 L27.89 29.30 L26.03 29.08 L24.22 28.85 L22.45 28.62 L20.73 28.39 L19.04 28.14 L17.40 27.86 L15.78 27.55 L14.20 27.17 L12.65 26.60 L12.00 24.96 L13.14 23.63 L14.42 22.54 L15.78 21.53 L17.20 20.58 L18.68 19.66 L20.23 18.76 L21.83 17.90 L23.50 17.06 L25.23 16.25 L27.02 15.47 L28.89 14.73 L30.82 14.03 L32.83 13.40 L34.93 12.84 L37.10 12.39 L39.37 12.09 L41.71 12.00 L44.13 12.23 L46.61 12.74 L49.14 13.48 L51.72 14.38 L54.35 15.43 L57.02 16.61 L59.74 17.90 L62.51 19.30 L65.32 20.80 L68.19 22.41 L71.09 24.12 L74.05 25.94 L77.04 27.87 L80.07 29.92" fill="none" stroke="#9ca3af" stroke-opacity="0.8" stroke-width="0.8" stroke-linecap="round" stroke-dasharray="4 4" marker-end="url(#motion-arrow)" />
  <circle cx="42.39" cy="31.31" r="10.34" fill="#7c3aed" />
</svg>