<?xml version="1.0" encoding="UTF-8"?>
<svg xmlns="http://www.w3.org/2000/svg" width="120" height="120" viewBox="0 0 120 120" fill="none">
  
  <g stroke="#cbd5e1" stroke-opacity="0.9" stroke-width="1.5" stroke-linecap="round" stroke-linejoin="round">
    <line x1="43.01" y1="39.10" x2="65.74" y2="49.84" />
    <line x1="43.01" y1="12.00" x2="43.01" y2="39.10" />
    <line x1="43.01" y1="39.10" x2="20.28" y2="49.84" />
  </g>
  
  <g stroke="#0f172a" stroke-opacity="0.85" stroke-width="1.6" stroke-linecap="round" stroke-linejoin="round">
    <line x1="65.74" y1="49.84" x2="68.59" y2="19.30" />
    <line x1="68.59" y1="19.30" x2="43.01" y2="12.00" />
    <line x1="20.28" y1="49.84" x2="43.01" y2="64.61" />
    <line x1="43.01" y1="64.61" x2="43.01" y2="29.74" />
    <line x1="43.01" y1="29.74" x2="17.43" y2="19.30" />
    <line x1="17.43" y1="19.30" x2="20.28" y2="49.84" />
    <line x1="65.74" y1="49.84" x2="43.01" y2="64.61" />
    <line x1="68.59" y1="19.30" x2="43.01" y2="29.74" />
    <line x1="43.01" y1="12.00" x2="17.43" y2="19.30" />
  </g>
  
  <defs>
    <marker id="motion-arrow" markerWidth="6" markerHeight="6" refX="5" refY="3" orient="auto">
      <path d="M0,0 L6,3 L0,6 Z" fill="#9ca3af" />
    </marker>
  </defs>
  <path d="M95.51 58.99 L91.24 59.06 L86.57 58.31 L81.98 57.39 L77.51 56.40 L73.16 55.37 L68.94 54.32 L64.85 53.24 L60.90 52.16 L57.08 51.06 L53.40 49.94 L49.88 48.79 L46.56 47.60 L43.42 46.39 L40.45 45.16 L37.64 43.93 L35.01 42.70 L32.53 41.47 L30.21 40.25 L28.04 39.04 L26.03 37.85 L24.16 36.66 L22.45 35.49 L20.88 34.33 L19.48 33.19 L18.24 32.05 L17.15 30.93 L16.18 29.83 L15.30 28.77 L14.51 27.73 L13.80 26.71 L13.18 25.73 L12.65 24.76 L12.24 23.82 L12.00 22.89 L12.32 21.96 L14.47 22.11 L16.33 22.65 L18.12 23.24 L19.90 23.86 L21.68 24.52 L23.49 25.20 L25.31 25.91 L27.17 26.64 L29.06 27.40 L31.00 28.18 L32.98 28.99 L35.00 29.83 L37.07 30.69" fill="none" stroke="#9ca3af" stroke-opacity="0.8" stroke-width="0.8" stroke-linecap="round" stroke-dasharray="4 4" marker-end="url(#motion-arrow)" />
  <circle cx="95.51" cy="58.99" r="11.35" fill="#7c3aed" />
  
  
</svg>