<?xml version="1.0" encoding="UTF-8"?>
<svg xmlns="http://www.w3.org/2000/svg" width="120" height="120" viewBox="0 0 120 120" fill="none">
  <g stroke="#cbd5e1" stroke-opacity="0.9" stroke-width="1.5" stroke-linecap="round" stroke-linejoin="round">
    <line x1="78.28" y1="44.36" x2="101.53" y2="55.35" />
    <line x1="80.61" y1="22.10" x2="78.28" y2="44.36" />
    <line x1="78.28" y1="44.36" x2="61.98" y2="55.35" />
    <line x1="41.72" y1="44.36" x2="58.02" y2="55.35" />
    <line x1="39.39" y1="22.10" x2="41.72" y2="44.36" />
    <line x1="41.72" y1="44.36" x2="18.47" y2="55.35" />
    <line x1="46.47" y1="29.31" x2="58.61" y2="35.05" />
    <line x1="45.24" y1="12.00" x2="46.47" y2="29.31" />
    <line x1="46.47" y1="29.31" x2="30.72" y2="35.05" />
    <line x1="73.53" y1="29.31" x2="89.28" y2="35.05" />
    <line x1="74.76" y1="12.00" x2="73.53" y2="29.31" />
    <line x1="73.53" y1="29.31" x2="61.39" y2="35.05" />
  </g>
  <g stroke="#0f172a" stroke-opacity="0.85" stroke-width="1.6" stroke-linecap="round" stroke-linejoin="round">
    <line x1="101.53" y1="55.35" x2="108.00" y2="29.91" />
    <line x1="108.00" y1="29.91" x2="80.61" y2="22.10" />
    <line x1="61.98" y1="55.35" x2="86.86" y2="71.51" />
    <line x1="86.86" y1="71.51" x2="92.23" y2="42.13" />
    <line x1="92.23" y1="42.13" x2="62.29" y2="29.91" />
    <line x1="62.29" y1="29.91" x2="61.98" y2="55.35" />
    <line x1="101.53" y1="55.35" x2="86.86" y2="71.51" />
    <line x1="108.00" y1="29.91" x2="92.23" y2="42.13" />
    <line x1="80.61" y1="22.10" x2="62.29" y2="29.91" />
    <line x1="58.02" y1="55.35" x2="57.71" y2="29.91" />
    <line x1="57.71" y1="29.91" x2="39.39" y2="22.10" />
    <line x1="18.47" y1="55.35" x2="33.14" y2="71.51" />
    <line x1="33.14" y1="71.51" x2="27.77" y2="42.13" />
    <line x1="27.77" y1="42.13" x2="12.00" y2="29.91" />
    <line x1="12.00" y1="29.91" x2="18.47" y2="55.35" />
    <line x1="58.02" y1="55.35" x2="33.14" y2="71.51" />
    <line x1="57.71" y1="29.91" x2="27.77" y2="42.13" />
    <line x1="39.39" y1="22.10" x2="12.00" y2="29.91" />
    <line x1="58.61" y1="35.05" x2="58.46" y2="15.77" />
    <line x1="58.46" y1="15.77" x2="45.24" y2="12.00" />
    <line x1="30.72" y1="35.05" x2="42.29" y2="42.56" />
    <line x1="42.29" y1="42.56" x2="40.10" y2="20.86" />
    <line x1="40.10" y1="20.86" x2="27.64" y2="15.77" />
    <line x1="27.64" y1="15.77" x2="30.72" y2="35.05" />
    <line x1="58.61" y1="35.05" x2="42.29" y2="42.56" />
    <line x1="58.46" y1="15.77" x2="40.10" y2="20.86" />
    <line x1="45.24" y1="12.00" x2="27.64" y2="15.77" />
    <line x1="89.28" y1="35.05" x2="92.36" y2="15.77" />
    <line x1="92.36" y1="15.77" x2="74.76" y2="12.00" />
    <line x1="61.39" y1="35.05" x2="77.71" y2="42.56" />
    <line x1="77.71" y1="42.56" x2="79.90" y2="20.86" />
    <line x1="79.90" y1="20.86" x2="61.54" y2="15.77" />
    <line x1="61.54" y1="15.77" x2="61.39" y2="35.05" />
    <line x1="89.28" y1="35.05" x2="77.71" y2="42.56" />
    <line x1="92.36" y1="15.77" x2="79.90" y2="20.86" />
    <line x1="74.76" y1="12.00" x2="61.54" y2="15.77" />
  </g>
  
  <circle cx="61.82" cy="35.55" r="5.15" fill="#7c3aed" />
</svg>