<?xml version="1.0" encoding="UTF-8"?>
<svg xmlns="http://www.w3.org/2000/svg" width="120" height="120" viewBox="0 0 120 120" fill="none">
  
  <g stroke="#cbd5e1" stroke-opacity="0.9" stroke-width="1.5" stroke-linecap="round" stroke-linejoin="round">
    <line x1="68.37" y1="53.97" x2="103.59" y2="70.63" />
    <line x1="68.37" y1="12.00" x2="68.37" y2="53.97" />
    <line x1="68.37" y1="53.97" x2="33.16" y2="70.63" />
  </g>
  
  <g stroke="#0f172a" stroke-opacity="0.85" stroke-width="1.6" stroke-linecap="round" stroke-linejoin="round">
    <line x1="103.59" y1="70.63" x2="108.00" y2="23.31" />
    <line x1="108.00" y1="23.31" x2="68.37" y2="12.00" />
    <line x1="33.16" y1="70.63" x2="68.37" y2="93.49" />
    <line x1="28.75" y1="23.31" x2="33.16" y2="70.63" />
    <line x1="103.59" y1="70.63" x2="68.37" y2="93.49" />
    <line x1="68.37" y1="12.00" x2="28.75" y2="23.31" />
  </g>
  
  <defs>
    <marker id="motion-arrow" markerWidth="6" markerHeight="6" refX="5" refY="3" orient="auto">
      <path d="M0,0 L6,3 L0,6 Z" fill="#9ca3af" />
    </marker>
  </defs>
  <path d="M52.39 55.52 L49.34 56.29 L46.21 57.02 L42.98 57.71 L39.67 58.37 L36.26 59.01 L32.75 59.63 L29.13 60.23 L25.40 60.81 L21.55 61.35 L17.59 61.84 L13.50 62.21 L12.00 61.35 L16.19 59.87 L20.28 58.58 L24.23 57.37 L28.06 56.23 L31.79 55.14 L35.40 54.10 L38.90 53.09 L42.31 52.13 L45.61 51.20 L48.83 50.30 L51.95 49.43 L54.99 48.59 L57.94 47.78 L60.82 46.99 L63.62 46.23 L66.35 45.49 L69.01 44.77 L71.60 44.07 L74.12 43.40 L76.59 42.74 L78.99 42.10 L81.33 41.49 L83.62 40.89 L85.85 40.30 L88.03 39.74 L90.17 39.19 L92.24 38.66 L94.28 38.15 L96.26 37.65 L98.21 37.18 L100.10 36.72 L101.95 36.29 L103.76 35.90 L105.12 35.88 L103.28 36.81 L101.40 37.65" fill="none" stroke="#9ca3af" stroke-opacity="0.8" stroke-width="0.8" stroke-linecap="round" stroke-dasharray="4 4" marker-end="url(#motion-arrow)" />
  <circle cx="52.39" cy="55.52" r="11.24" fill="#7c3aed" />
  
  
  <g stroke="#0f172a" stroke-opacity="0.85" stroke-width="1.6" stroke-linecap="round" stroke-linejoin="round">
    <line x1="68.37" y1="93.49" x2="68.37" y2="39.48" />
    <line x1="68.37" y1="39.48" x2="28.75" y2="23.31" />
    <line x1="108.00" y1="23.31" x2="68.37" y2="39.48" />
  </g>
</svg>