<?xml version="1.0" encoding="UTF-8"?>
<svg xmlns="http://www.w3.org/2000/svg" width="120" height="120" viewBox="0 0 120 120" fill="none">
  
  <g stroke="#cbd5e1" stroke-opacity="0.9" stroke-width="1.5" stroke-linecap="round" stroke-linejoin="round">
    <line x1="85.50" y1="35.83" x2="105.49" y2="45.28" />
    <line x1="85.50" y1="12.00" x2="85.50" y2="35.83" />
    <line x1="85.50" y1="35.83" x2="65.51" y2="45.28" />
  </g>
  
  <g stroke="#0f172a" stroke-opacity="0.85" stroke-width="1.6" stroke-linecap="round" stroke-linejoin="round">
    <line x1="105.49" y1="45.28" x2="108.00" y2="18.42" />
    <line x1="108.00" y1="18.42" x2="85.50" y2="12.00" />
    <line x1="65.51" y1="45.28" x2="85.50" y2="58.26" />
    <line x1="85.50" y1="58.26" x2="85.50" y2="27.60" />
    <line x1="85.50" y1="27.60" x2="63.01" y2="18.42" />
    <line x1="63.01" y1="18.42" x2="65.51" y2="45.28" />
    <line x1="105.49" y1="45.28" x2="85.50" y2="58.26" />
    <line x1="108.00" y1="18.42" x2="85.50" y2="27.60" />
    <line x1="85.50" y1="12.00" x2="63.01" y2="18.42" />
  </g>
  
  <defs>
    <marker id="motion-arrow" markerWidth="6" markerHeight="6" refX="5" refY="3" orient="auto">
      <path d="M0,0 L6,3 L0,6 Z" fill="#9ca3af" />
    </marker>
  </defs>
  <path d="M12.00 65.56 L53.76 46.86" fill="none" stroke="#9ca3af" stroke-opacity="0.8" stroke-width="0.8" stroke-linecap="round" stroke-dasharray="4 4" marker-end="url(#motion-arrow)" />
  <circle cx="53.76" cy="46.86" r="8.35" fill="#7c3aed" />
  
  
</svg>