<?xml version="1.0" encoding="UTF-8"?>
<svg xmlns="http://www.w3.org/2000/svg" width="120" height="120" viewBox="0 0 120 120" fill="none">
  
  <g stroke="#cbd5e1" stroke-opacity="0.9" stroke-width="1.5" stroke-linecap="round" stroke-linejoin="round">
    <line x1="82.88" y1="38.61" x2="105.20" y2="49.16" />
    <line x1="82.88" y1="12.00" x2="82.88" y2="38.61" />
    <line x1="82.88" y1="38.61" x2="60.56" y2="49.16" />
  </g>
  
  <g stroke="#0f172a" stroke-opacity="0.85" stroke-width="1.6" stroke-linecap="round" stroke-linejoin="round">
    <line x1="105.20" y1="49.16" x2="108.00" y2="19.17" />
    <line x1="108.00" y1="19.17" x2="82.88" y2="12.00" />
    <line x1="60.56" y1="49.16" x2="82.88" y2="63.65" />
    <line x1="82.88" y1="63.65" x2="82.88" y2="29.42" />
    <line x1="82.88" y1="29.42" x2="57.77" y2="19.17" />
    <line x1="57.77" y1="19.17" x2="60.56" y2="49.16" />
    <line x1="105.20" y1="49.16" x2="82.88" y2="63.65" />
    <line x1="108.00" y1="19.17" x2="82.88" y2="29.42" />
    <line x1="82.88" y1="12.00" x2="57.77" y2="19.17" />
  </g>
  
  <defs>
    <marker id="motion-arrow" markerWidth="6" markerHeight="6" refX="5" refY="3" orient="auto">
      <path d="M0,0 L6,3 L0,6 Z" fill="#9ca3af" />
    </marker>
  </defs>
  <path d="M12.00 66.79 L51.05 49.30" fill="none" stroke="#9ca3af" stroke-opacity="0.8" stroke-width="0.8" stroke-linecap="round" stroke-dasharray="4 4" marker-end="url(#motion-arrow)" />
  <circle cx="51.05" cy="49.30" r="8.94" fill="#7c3aed" />
  
  
</svg>