<?xml version="1.0" encoding="UTF-8"?>
<svg xmlns="http://www.w3.org/2000/svg" width="120" height="120" viewBox="0 0 120 120" fill="none">
  
  <g stroke="#cbd5e1" stroke-opacity="0.9" stroke-width="1.5" stroke-linecap="round" stroke-linejoin="round">
    <line x1="38.96" y1="81.11" x2="62.92" y2="92.44" />
    <line x1="38.96" y1="52.55" x2="38.96" y2="81.11" />
    <line x1="38.96" y1="81.11" x2="15.00" y2="92.44" />
  </g>
  
  <g stroke="#0f172a" stroke-opacity="0.85" stroke-width="1.6" stroke-linecap="round" stroke-linejoin="round">
    <line x1="62.92" y1="92.44" x2="65.92" y2="60.25" />
    <line x1="65.92" y1="60.25" x2="38.96" y2="52.55" />
    <line x1="15.00" y1="92.44" x2="38.96" y2="108.00" />
    <line x1="38.96" y1="71.25" x2="12.00" y2="60.25" />
    <line x1="12.00" y1="60.25" x2="15.00" y2="92.44" />
    <line x1="62.92" y1="92.44" x2="38.96" y2="108.00" />
    <line x1="65.92" y1="60.25" x2="38.96" y2="71.25" />
    <line x1="38.96" y1="52.55" x2="12.00" y2="60.25" />
  </g>
  
  <defs>
    <marker id="motion-arrow" markerWidth="6" markerHeight="6" refX="5" refY="3" orient="auto">
      <path d="M0,0 L6,3 L0,6 Z" fill="#9ca3af" />
    </marker>
  </defs>
  <path d="M38.96 70.72 L38.96 23.50" fill="none" stroke="#9ca3af" stroke-opacity="0.8" stroke-width="0.8" stroke-linecap="round" stroke-dasharray="4 4" marker-end="url(#motion-arrow)" />
  <circle cx="38.96" cy="23.50" r="10.45" fill="#7c3aed" />
  
  
  <g stroke="#0f172a" stroke-opacity="0.85" stroke-width="1.6" stroke-linecap="round" stroke-linejoin="round">
    <line x1="38.96" y1="108.00" x2="38.96" y2="71.25" />
  </g>
</svg>