<?xml version="1.0" encoding="UTF-8"?>
<!-- Generated by Pixelmator Pro 4.0 -->
<svg width="96" height="96" viewBox="0 0 96 96" xmlns="http://www.w3.org/2000/svg">
    <path id="path1" fill="#f59a23" stroke="none" d="M 52 4 L 56 4 L 56 8 L 52 8 Z M 56 4 L 60 4 L 60 8 L 56 8 Z M 60 4 L 64 4 L 64 8 L 60 8 Z M 64 4 L 68 4 L 68 8 L 64 8 Z M 68 4 L 72 4 L 72 8 L 68 8 Z M 72 4 L 76 4 L 76 8 L 72 8 Z M 48 8 L 52 8 L 52 12 L 48 12 Z M 52 8 L 56 8 L 56 12 L 52 12 Z M 56 8 L 60 8 L 60 12 L 56 12 Z M 60 8 L 64 8 L 64 12 L 60 12 Z M 64 8 L 68 8 L 68 12 L 64 12 Z M 68 8 L 72 8 L 72 12 L 68 12 Z M 72 8 L 76 8 L 76 12 L 72 12 Z M 76 8 L 80 8 L 80 12 L 76 12 Z M 44 12 L 48 12 L 48 16 L 44 16 Z M 48 12 L 52 12 L 52 16 L 48 16 Z M 52 12 L 56 12 L 56 16 L 52 16 Z M 56 12 L 60 12 L 60 16 L 56 16 Z M 60 12 L 64 12 L 64 16 L 60 16 Z M 64 12 L 68 12 L 68 16 L 64 16 Z M 68 12 L 72 12 L 72 16 L 68 16 Z M 72 12 L 76 12 L 76 16 L 72 16 Z M 76 12 L 80 12 L 80 16 L 76 16 Z M 80 12 L 84 12 L 84 16 L 80 16 Z M 44 16 L 48 16 L 48 20 L 44 20 Z M 48 16 L 52 16 L 52 20 L 48 20 Z M 52 16 L 56 16 L 56 20 L 52 20 Z M 64 16 L 68 16 L 68 20 L 64 20 Z M 68 16 L 72 16 L 72 20 L 68 20 Z M 72 16 L 76 16 L 76 20 L 72 20 Z M 76 16 L 80 16 L 80 20 L 76 20 Z M 80 16 L 84 16 L 84 20 L 80 20 Z M 44 20 L 48 20 L 48 24 L 44 24 Z M 48 20 L 52 20 L 52 24 L 48 24 Z M 52 20 L 56 20 L 56 24 L 52 24 Z M 64 20 L 68 20 L 68 24 L 64 24 Z M 68 20 L 72 20 L 72 24 L 68 24 Z M 72 20 L 76 20 L 76 24 L 72 24 Z M 76 20 L 80 20 L 80 24 L 76 24 Z M 80 20 L 84 20 L 84 24 L 80 24 Z M 44 24 L 48 24 L 48 28 L 44 28 Z M 48 24 L 52 24 L 52 28 L 48 28 Z M 52 24 L 56 24 L 56 28 L 52 28 Z M 56 24 L 60 24 L 60 28 L 56 28 Z M 60 24 L 64 24 L 64 28 L 60 28 Z M 64 24 L 68 24 L 68 28 L 64 28 Z M 68 24 L 72 24 L 72 28 L 68 28 Z M 72 24 L 76 24 L 76 28 L 72 28 Z M 76 24 L 80 24 L 80 28 L 76 28 Z M 80 24 L 84 24 L 80 24 L 80 28 Z M 44 28 L 48 28 L 48 32 L 44 32 Z M 48 28 L 52 28 L 52 32 L 48 32 Z M 52 28 L 56 28 L 56 32 L 52 32 Z M 56 28 L 60 28 L 60 32 L 56 32 Z M 60 28 L 64 28 L 64 32 L 60 32 Z M 64 28 L 68 28 L 68 32 L 64 32 Z M 68 28 L 72 28 L 72 32 L 68 32 Z M 72 28 L 76 28 L 76 32 L 72 32 Z M 16 32 L 20 32 L 20 36 L 16 36 Z M 44 32 L 44 36 L 40 36 L 44 36 Z M 44 32 L 48 32 L 48 36 L 44 36 Z M 48 32 L 52 32 L 52 36 L 48 36 Z M 52 32 L 56 32 L 56 36 L 52 36 Z M 56 32 L 60 32 L 60 36 L 56 36 Z M 60 32 L 64 32 L 64 36 L 60 36 Z M 16 36 L 20 36 L 20 40 L 16 40 Z M 20 36 L 20 40 L 24 40 L 20 40 Z M 40 36 L 40 40 L 36 40 L 40 40 Z M 40 36 L 44 36 L 44 40 L 40 40 Z M 44 36 L 48 36 L 48 40 L 44 40 Z M 48 36 L 52 36 L 52 40 L 48 40 Z M 52 36 L 56 36 L 56 40 L 52 40 Z M 56 36 L 60 36 L 60 40 L 56 40 Z M 60 36 L 64 36 L 64 40 L 60 40 Z M 64 36 L 68 36 L 68 40 L 64 40 Z M 76 36 L 80 36 L 80 40 L 76 40 Z M 12 40 L 16 40 L 16 44 L 12 44 Z M 16 40 L 20 40 L 20 44 L 16 44 Z M 20 40 L 24 40 L 24 44 L 20 44 Z M 36 40 L 36 44 L 32 44 L 36 44 Z M 36 40 L 40 40 L 40 44 L 36 44 Z M 40 40 L 44 40 L 44 44 L 40 44 Z M 44 40 L 48 40 L 48 44 L 44 44 Z M 48 40 L 52 40 L 52 44 L 48 44 Z M 52 40 L 56 40 L 56 44 L 52 44 Z M 56 40 L 60 40 L 60 44 L 56 44 Z M 60 40 L 64 40 L 64 44 L 60 44 Z M 64 40 L 68 40 L 68 44 L 64 44 Z M 68 40 L 72 40 L 72 44 L 68 44 Z M 76 40 L 80 40 L 80 44 L 76 44 Z M 80 40 L 84 40 L 84 44 L 80 44 Z M 8 44 L 12 44 L 12 48 L 8 48 Z M 12 44 L 16 44 L 16 48 L 12 48 Z M 16 44 L 20 44 L 20 48 L 16 48 Z M 20 44 L 24 44 L 24 48 L 20 48 Z M 24 44 L 24 48 L 28 48 L 24 48 Z M 32 44 L 32 48 L 28 48 L 32 48 Z M 32 44 L 36 44 L 36 48 L 32 48 Z M 36 44 L 40 44 L 40 48 L 36 48 Z M 40 44 L 44 44 L 44 48 L 40 48 Z M 44 44 L 48 44 L 48 48 L 44 48 Z M 48 44 L 52 44 L 52 48 L 48 48 Z M 52 44 L 56 44 L 56 48 L 52 48 Z M 56 44 L 60 44 L 60 48 L 56 48 Z M 60 44 L 64 44 L 64 48 L 60 48 Z M 64 44 L 68 44 L 68 48 L 64 48 Z M 68 44 L 72 44 L 72 48 L 68 48 Z M 72 44 L 76 44 L 76 48 L 72 48 Z M 76 44 L 80 44 L 80 48 L 76 48 Z M 4 48 L 8 48 L 8 52 L 4 52 Z M 8 48 L 12 48 L 12 52 L 8 52 Z M 12 48 L 16 48 L 16 52 L 12 52 Z M 16 48 L 20 48 L 20 52 L 16 52 Z M 20 48 L 24 48 L 24 52 L 20 52 Z M 24 48 L 28 48 L 28 52 L 24 52 Z M 28 48 L 32 48 L 32 52 L 28 52 Z M 32 48 L 36 48 L 36 52 L 32 52 Z M 36 48 L 40 48 L 40 52 L 36 52 Z M 40 48 L 44 48 L 44 52 L 40 52 Z M 44 48 L 48 48 L 48 52 L 44 52 Z M 48 48 L 52 48 L 52 52 L 48 52 Z M 52 48 L 56 48 L 56 52 L 52 52 Z M 56 48 L 60 48 L 60 52 L 56 52 Z M 60 48 L 64 48 L 64 52 L 60 52 Z M 64 48 L 68 48 L 68 52 L 64 52 Z M 68 48 L 72 48 L 72 52 L 68 52 Z M 72 48 L 76 48 L 76 52 L 72 52 Z M 76 48 L 80 48 L 80 52 L 76 52 Z M 4 52 L 8 52 L 8 56 L 4 56 Z M 8 52 L 12 52 L 12 56 L 8 56 Z M 12 52 L 16 52 L 16 56 L 12 56 Z M 16 52 L 20 52 L 20 56 L 16 56 Z M 20 52 L 24 52 L 24 56 L 20 56 Z M 24 52 L 28 52 L 28 56 L 24 56 Z M 28 52 L 32 52 L 32 56 L 28 56 Z M 32 52 L 36 52 L 36 56 L 32 56 Z M 36 52 L 40 52 L 40 56 L 36 56 Z M 40 52 L 44 52 L 44 56 L 40 56 Z M 44 52 L 48 52 L 48 56 L 44 56 Z M 48 52 L 52 52 L 52 56 L 48 56 Z M 52 52 L 56 52 L 56 56 L 52 56 Z M 56 52 L 60 52 L 60 56 L 56 56 Z M 60 52 L 64 52 L 64 56 L 60 56 Z M 64 52 L 68 52 L 68 56 L 64 56 Z M 68 52 L 72 52 L 72 56 L 68 56 Z M 72 52 L 76 52 L 76 56 L 72 56 Z M 8 56 L 12 56 L 12 60 L 8 60 Z M 12 56 L 16 56 L 16 60 L 12 60 Z M 16 56 L 20 56 L 20 60 L 16 60 Z M 20 56 L 24 56 L 24 60 L 20 60 Z M 24 56 L 28 56 L 28 60 L 24 60 Z M 28 56 L 32 56 L 32 60 L 28 60 Z M 32 56 L 36 56 L 36 60 L 32 60 Z M 36 56 L 40 56 L 40 60 L 36 60 Z M 40 56 L 44 56 L 44 60 L 40 60 Z M 44 56 L 48 56 L 48 60 L 44 60 Z M 48 56 L 52 56 L 52 60 L 48 60 Z M 52 56 L 56 56 L 56 60 L 52 60 Z M 56 56 L 60 56 L 60 60 L 56 60 Z M 60 56 L 64 56 L 64 60 L 60 60 Z M 64 56 L 68 56 L 68 60 L 64 60 Z M 68 56 L 72 56 L 72 60 L 68 60 Z M 12 60 L 16 60 L 16 64 L 12 64 Z M 16 60 L 20 60 L 20 64 L 16 64 Z M 20 60 L 24 60 L 24 64 L 20 64 Z M 24 60 L 28 60 L 28 64 L 24 64 Z M 28 60 L 32 60 L 32 64 L 28 64 Z M 32 60 L 36 60 L 36 64 L 32 64 Z M 36 60 L 40 60 L 40 64 L 36 64 Z M 40 60 L 44 60 L 44 64 L 40 64 Z M 44 60 L 48 60 L 48 64 L 44 64 Z M 48 60 L 52 60 L 52 64 L 48 64 Z M 52 60 L 56 60 L 56 64 L 52 64 Z M 56 60 L 60 60 L 60 64 L 56 64 Z M 60 60 L 64 60 L 64 64 L 60 64 Z M 64 60 L 68 60 L 68 64 L 64 64 Z M 68 60 L 72 60 L 72 64 L 68 64 Z M 16 64 L 20 64 L 20 68 L 16 68 Z M 20 64 L 24 64 L 24 68 L 20 68 Z M 24 64 L 28 64 L 28 68 L 24 68 Z M 28 64 L 32 64 L 32 68 L 28 68 Z M 32 64 L 36 64 L 36 68 L 32 68 Z M 36 64 L 40 64 L 40 68 L 36 68 Z M 40 64 L 44 64 L 44 68 L 40 68 Z M 44 64 L 48 64 L 48 68 L 44 68 Z M 48 64 L 52 64 L 52 68 L 48 68 Z M 52 64 L 56 64 L 56 68 L 52 68 Z M 56 64 L 60 64 L 60 68 L 56 68 Z M 60 64 L 64 64 L 64 68 L 60 68 Z M 64 64 L 68 64 L 68 68 L 64 68 Z M 68 64 L 72 64 L 72 68 L 68 68 Z M 20 68 L 24 68 L 24 72 L 20 72 Z M 24 68 L 28 68 L 28 72 L 24 72 Z M 28 68 L 32 68 L 32 72 L 28 72 Z M 32 68 L 36 68 L 36 72 L 32 72 Z M 36 68 L 40 68 L 40 72 L 36 72 Z M 48 68 L 52 68 L 52 72 L 48 72 Z M 52 68 L 56 68 L 56 72 L 52 72 Z M 56 68 L 60 68 L 60 72 L 56 72 Z M 60 68 L 64 68 L 64 72 L 60 72 Z M 64 68 L 68 68 L 68 72 L 64 72 Z M 24 72 L 28 72 L 28 76 L 24 76 Z M 28 72 L 32 72 L 32 76 L 28 76 Z M 32 72 L 36 72 L 36 76 L 32 76 Z M 36 72 L 40 72 L 40 76 L 36 76 Z M 52 72 L 56 72 L 56 76 L 52 76 Z M 56 72 L 60 72 L 60 76 L 56 76 Z M 60 72 L 64 72 L 64 76 L 60 76 Z M 64 72 L 68 72 L 68 76 L 64 76 Z M 28 76 L 28 80 Z M 28 76 L 32 76 L 32 80 L 28 80 Z M 32 76 L 36 76 L 36 80 L 32 80 Z M 36 76 L 36 80 Z M 56 76 L 56 80 Z M 56 76 L 60 76 L 60 80 L 56 80 Z M 60 76 L 64 76 L 64 80 L 60 80 Z M 64 76 L 64 80 Z M 28 80 L 32 80 L 32 84 L 28 84 Z M 32 80 L 36 80 L 36 84 L 32 84 Z M 56 80 L 60 80 L 60 84 L 56 84 Z M 60 80 L 64 80 L 64 84 L 60 84 Z M 28 84 L 32 84 L 32 88 L 28 88 Z M 32 84 L 36 84 L 36 88 L 32 88 Z M 56 84 L 60 84 L 60 88 L 56 88 Z M 60 84 L 64 84 L 64 88 L 60 88 Z"/>
    <path id="-" fill="#f59a23" stroke="none" visibility="hidden" d="M 52 4 L 56 4 L 56 8 L 52 8 Z M 56 4 L 60 4 L 60 8 L 56 8 Z M 60 4 L 64 4 L 64 8 L 60 8 Z M 64 4 L 68 4 L 68 8 L 64 8 Z M 68 4 L 72 4 L 72 8 L 68 8 Z M 72 4 L 76 4 L 76 8 L 72 8 Z M 48 8 L 52 8 L 52 12 L 48 12 Z M 52 8 L 56 8 L 56 12 L 52 12 Z M 56 8 L 60 8 L 60 12 L 56 12 Z M 60 8 L 64 8 L 64 12 L 60 12 Z M 64 8 L 68 8 L 68 12 L 64 12 Z M 68 8 L 72 8 L 72 12 L 68 12 Z M 72 8 L 76 8 L 76 12 L 72 12 Z M 76 8 L 80 8 L 80 12 L 76 12 Z M 44 12 L 48 12 L 48 16 L 44 16 Z M 48 12 L 52 12 L 52 16 L 48 16 Z M 52 12 L 56 12 L 56 16 L 52 16 Z M 56 12 L 60 12 L 60 16 L 56 16 Z M 60 12 L 64 12 L 64 16 L 60 16 Z M 64 12 L 68 12 L 68 16 L 64 16 Z M 68 12 L 72 12 L 72 16 L 68 16 Z M 72 12 L 76 12 L 76 16 L 72 16 Z M 76 12 L 80 12 L 80 16 L 76 16 Z M 80 12 L 84 12 L 84 16 L 80 16 Z M 44 16 L 48 16 L 48 20 L 44 20 Z M 48 16 L 52 16 L 52 20 L 48 20 Z M 52 16 L 56 16 L 56 20 L 52 20 Z M 64 16 L 68 16 L 68 20 L 64 20 Z M 68 16 L 72 16 L 72 20 L 68 20 Z M 72 16 L 76 16 L 76 20 L 72 20 Z M 76 16 L 80 16 L 80 20 L 76 20 Z M 80 16 L 84 16 L 84 20 L 80 20 Z M 44 20 L 48 20 L 48 24 L 44 24 Z M 48 20 L 52 20 L 52 24 L 48 24 Z M 52 20 L 56 20 L 56 24 L 52 24 Z M 64 20 L 68 20 L 68 24 L 64 24 Z M 68 20 L 72 20 L 72 24 L 68 24 Z M 72 20 L 76 20 L 76 24 L 72 24 Z M 76 20 L 80 20 L 80 24 L 76 24 Z M 80 20 L 84 20 L 84 24 L 80 24 Z M 44 24 L 48 24 L 48 28 L 44 28 Z M 48 24 L 52 24 L 52 28 L 48 28 Z M 52 24 L 56 24 L 56 28 L 52 28 Z M 56 24 L 60 24 L 60 28 L 56 28 Z M 60 24 L 64 24 L 64 28 L 60 28 Z M 64 24 L 68 24 L 68 28 L 64 28 Z M 68 24 L 72 24 L 72 28 L 68 28 Z M 72 24 L 76 24 L 76 28 L 72 28 Z M 76 24 L 80 24 L 80 28 L 76 28 Z M 80 24 L 84 24 L 84 28 L 80 28 Z M 44 28 L 48 28 L 48 32 L 44 32 Z M 48 28 L 52 28 L 52 32 L 48 32 Z M 52 28 L 56 28 L 56 32 L 52 32 Z M 56 28 L 60 28 L 60 32 L 56 32 Z M 60 28 L 64 28 L 64 32 L 60 32 Z M 64 28 L 68 28 L 68 32 L 64 32 Z M 68 28 L 72 28 L 72 32 L 68 32 Z M 72 28 L 76 28 L 76 32 L 72 32 Z M 16 32 L 20 32 L 20 36 L 16 36 Z M 32 32 L 36 32 L 36 36 L 32 36 Z M 36 32 L 40 32 L 40 36 L 36 36 Z M 40 32 L 44 32 L 44 36 L 40 36 Z M 44 32 L 48 32 L 48 36 L 44 36 Z M 48 32 L 52 32 L 52 36 L 48 36 Z M 52 32 L 56 32 L 56 36 L 52 36 Z M 56 32 L 60 32 L 60 36 L 56 36 Z M 60 32 L 64 32 L 64 36 L 60 36 Z M 16 36 L 20 36 L 20 40 L 16 40 Z M 20 36 L 24 36 L 24 40 L 20 40 Z M 32 36 L 36 36 L 36 40 L 32 40 Z M 36 36 L 40 36 L 40 40 L 36 40 Z M 40 36 L 44 36 L 44 40 L 40 40 Z M 44 36 L 48 36 L 48 40 L 44 40 Z M 48 36 L 52 36 L 52 40 L 48 40 Z M 52 36 L 56 36 L 56 40 L 52 40 Z M 56 36 L 60 36 L 60 40 L 56 40 Z M 60 36 L 64 36 L 64 40 L 60 40 Z M 64 36 L 68 36 L 68 40 L 64 40 Z M 76 36 L 80 36 L 80 40 L 76 40 Z M 12 40 L 16 40 L 16 44 L 12 44 Z M 16 40 L 20 40 L 20 44 L 16 44 Z M 20 40 L 24 40 L 24 44 L 20 44 Z M 32 40 L 36 40 L 36 44 L 32 44 Z M 36 40 L 40 40 L 40 44 L 36 44 Z M 40 40 L 44 40 L 44 44 L 40 44 Z M 44 40 L 48 40 L 48 44 L 44 44 Z M 48 40 L 52 40 L 52 44 L 48 44 Z M 52 40 L 56 40 L 56 44 L 52 44 Z M 56 40 L 60 40 L 60 44 L 56 44 Z M 60 40 L 64 40 L 64 44 L 60 44 Z M 64 40 L 68 40 L 68 44 L 64 44 Z M 68 40 L 72 40 L 72 44 L 68 44 Z M 76 40 L 80 40 L 80 44 L 76 44 Z M 80 40 L 84 40 L 84 44 L 80 44 Z M 8 44 L 12 44 L 12 48 L 8 48 Z M 12 44 L 16 44 L 16 48 L 12 48 Z M 16 44 L 20 44 L 20 48 L 16 48 Z M 20 44 L 24 44 L 24 48 L 20 48 Z M 24 44 L 28 44 L 28 48 L 24 48 Z M 28 44 L 32 44 L 32 48 L 28 48 Z M 32 44 L 36 44 L 36 48 L 32 48 Z M 36 44 L 40 44 L 40 48 L 36 48 Z M 40 44 L 44 44 L 44 48 L 40 48 Z M 44 44 L 48 44 L 48 48 L 44 48 Z M 48 44 L 52 44 L 52 48 L 48 48 Z M 52 44 L 56 44 L 56 48 L 52 48 Z M 56 44 L 60 44 L 60 48 L 56 48 Z M 60 44 L 64 44 L 64 48 L 60 48 Z M 64 44 L 68 44 L 68 48 L 64 48 Z M 68 44 L 72 44 L 72 48 L 68 48 Z M 72 44 L 76 44 L 76 48 L 72 48 Z M 76 44 L 80 44 L 80 48 L 76 48 Z M 4 48 L 8 48 L 8 52 L 4 52 Z M 8 48 L 12 48 L 12 52 L 8 52 Z M 12 48 L 16 48 L 16 52 L 12 52 Z M 16 48 L 20 48 L 20 52 L 16 52 Z M 20 48 L 24 48 L 24 52 L 20 52 Z M 24 48 L 28 48 L 28 52 L 24 52 Z M 28 48 L 32 48 L 32 52 L 28 52 Z M 32 48 L 36 48 L 36 52 L 32 52 Z M 36 48 L 40 48 L 40 52 L 36 52 Z M 40 48 L 44 48 L 44 52 L 40 52 Z M 44 48 L 48 48 L 48 52 L 44 52 Z M 48 48 L 52 48 L 52 52 L 48 52 Z M 52 48 L 56 48 L 56 52 L 52 52 Z M 56 48 L 60 48 L 60 52 L 56 52 Z M 60 48 L 64 48 L 64 52 L 60 52 Z M 64 48 L 68 48 L 68 52 L 64 52 Z M 68 48 L 72 48 L 72 52 L 68 52 Z M 72 48 L 76 48 L 76 52 L 72 52 Z M 76 48 L 80 48 L 80 52 L 76 52 Z M 4 52 L 8 52 L 8 56 L 4 56 Z M 8 52 L 12 52 L 12 56 L 8 56 Z M 12 52 L 16 52 L 16 56 L 12 56 Z M 16 52 L 20 52 L 20 56 L 16 56 Z M 20 52 L 24 52 L 24 56 L 20 56 Z M 24 52 L 28 52 L 28 56 L 24 56 Z M 28 52 L 32 52 L 32 56 L 28 56 Z M 32 52 L 36 52 L 36 56 L 32 56 Z M 36 52 L 40 52 L 40 56 L 36 56 Z M 40 52 L 44 52 L 44 56 L 40 56 Z M 44 52 L 48 52 L 48 56 L 44 56 Z M 48 52 L 52 52 L 52 56 L 48 56 Z M 52 52 L 56 52 L 56 56 L 52 56 Z M 56 52 L 60 52 L 60 56 L 56 56 Z M 60 52 L 64 52 L 64 56 L 60 56 Z M 64 52 L 68 52 L 68 56 L 64 56 Z M 68 52 L 72 52 L 72 56 L 68 56 Z M 72 52 L 76 52 L 76 56 L 72 56 Z M 8 56 L 12 56 L 12 60 L 8 60 Z M 12 56 L 16 56 L 16 60 L 12 60 Z M 16 56 L 20 56 L 20 60 L 16 60 Z M 20 56 L 24 56 L 24 60 L 20 60 Z M 24 56 L 28 56 L 28 60 L 24 60 Z M 28 56 L 32 56 L 32 60 L 28 60 Z M 32 56 L 36 56 L 36 60 L 32 60 Z M 36 56 L 40 56 L 40 60 L 36 60 Z M 40 56 L 44 56 L 44 60 L 40 60 Z M 44 56 L 48 56 L 48 60 L 44 60 Z M 48 56 L 52 56 L 52 60 L 48 60 Z M 52 56 L 56 56 L 56 60 L 52 60 Z M 56 56 L 60 56 L 60 60 L 56 60 Z M 60 56 L 64 56 L 64 60 L 60 60 Z M 64 56 L 68 56 L 68 60 L 64 60 Z M 68 56 L 72 56 L 72 60 L 68 60 Z M 12 60 L 16 60 L 16 64 L 12 64 Z M 16 60 L 20 60 L 20 64 L 16 64 Z M 20 60 L 24 60 L 24 64 L 20 64 Z M 24 60 L 28 60 L 28 64 L 24 64 Z M 28 60 L 32 60 L 32 64 L 28 64 Z M 32 60 L 36 60 L 36 64 L 32 64 Z M 36 60 L 40 60 L 40 64 L 36 64 Z M 40 60 L 44 60 L 44 64 L 40 64 Z M 44 60 L 48 60 L 48 64 L 44 64 Z M 48 60 L 52 60 L 52 64 L 48 64 Z M 52 60 L 56 60 L 56 64 L 52 64 Z M 56 60 L 60 60 L 60 64 L 56 64 Z M 60 60 L 64 60 L 64 64 L 60 64 Z M 64 60 L 68 60 L 68 64 L 64 64 Z M 68 60 L 72 60 L 72 64 L 68 64 Z M 16 64 L 20 64 L 20 68 L 16 68 Z M 20 64 L 24 64 L 24 68 L 20 68 Z M 24 64 L 28 64 L 28 68 L 24 68 Z M 28 64 L 32 64 L 32 68 L 28 68 Z M 32 64 L 36 64 L 36 68 L 32 68 Z M 36 64 L 40 64 L 40 68 L 36 68 Z M 40 64 L 44 64 L 44 68 L 40 68 Z M 44 64 L 48 64 L 48 68 L 44 68 Z M 48 64 L 52 64 L 52 68 L 48 68 Z M 52 64 L 56 64 L 56 68 L 52 68 Z M 56 64 L 60 64 L 60 68 L 56 68 Z M 60 64 L 64 64 L 64 68 L 60 68 Z M 64 64 L 68 64 L 68 68 L 64 68 Z M 68 64 L 72 64 L 72 68 L 68 68 Z M 20 68 L 24 68 L 24 72 L 20 72 Z M 24 68 L 28 68 L 28 72 L 24 72 Z M 28 68 L 32 68 L 32 72 L 28 72 Z M 32 68 L 36 68 L 36 72 L 32 72 Z M 36 68 L 40 68 L 40 72 L 36 72 Z M 48 68 L 52 68 L 52 72 L 48 72 Z M 52 68 L 56 68 L 56 72 L 52 72 Z M 56 68 L 60 68 L 60 72 L 56 72 Z M 60 68 L 64 68 L 64 72 L 60 72 Z M 64 68 L 68 68 L 68 72 L 64 72 Z M 24 72 L 28 72 L 28 76 L 24 76 Z M 28 72 L 32 72 L 32 76 L 28 76 Z M 32 72 L 36 72 L 36 76 L 32 76 Z M 36 72 L 40 72 L 40 76 L 36 76 Z M 52 72 L 56 72 L 56 76 L 52 76 Z M 56 72 L 60 72 L 60 76 L 56 76 Z M 60 72 L 64 72 L 64 76 L 60 76 Z M 64 72 L 68 72 L 68 76 L 64 76 Z M 24 76 L 28 76 L 28 80 L 24 80 Z M 28 76 L 32 76 L 32 80 L 28 80 Z M 32 76 L 36 76 L 36 80 L 32 80 Z M 36 76 L 40 76 L 40 80 L 36 80 Z M 52 76 L 56 76 L 56 80 L 52 80 Z M 56 76 L 60 76 L 60 80 L 56 80 Z M 60 76 L 64 76 L 64 80 L 60 80 Z M 64 76 L 68 76 L 68 80 L 64 80 Z M 28 80 L 32 80 L 32 84 L 28 84 Z M 32 80 L 36 80 L 36 84 L 32 84 Z M 56 80 L 60 80 L 60 84 L 56 84 Z M 60 80 L 64 80 L 64 84 L 60 84 Z M 28 84 L 32 84 L 32 88 L 28 88 Z M 32 84 L 36 84 L 36 88 L 32 88 Z M 56 84 L 60 84 L 60 88 L 56 88 Z M 60 84 L 64 84 L 64 88 L 60 88 Z"/>
    <path id="path2" fill="#6f35f4" stroke="none" d="M 56 16 L 60 16 L 60 20 L 56 20 Z M 60 16 L 64 16 L 64 20 L 60 20 Z M 56 20 L 60 20 L 60 24 L 56 24 Z M 60 20 L 64 20 L 64 24 L 60 24 Z"/>
</svg>
