<svg xmlns="http://www.w3.org/2000/svg" viewBox="0 0 96 96" shape-rendering="crispEdges">
  <path fill="#f59a23" d="M52 4h4v4h-4ZM56 4h4v4h-4ZM60 4h4v4h-4ZM64 4h4v4h-4ZM68 4h4v4h-4ZM72 4h4v4h-4ZM48 8h4v4h-4ZM52 8h4v4h-4ZM56 8h4v4h-4ZM60 8h4v4h-4ZM64 8h4v4h-4ZM68 8h4v4h-4ZM72 8h4v4h-4ZM76 8h4v4h-4ZM44 12h4v4h-4ZM48 12h4v4h-4ZM52 12h4v4h-4ZM56 12h4v4h-4ZM60 12h4v4h-4ZM64 12h4v4h-4ZM68 12h4v4h-4ZM72 12h4v4h-4ZM76 12h4v4h-4ZM80 12h4v4h-4ZM44 16h4v4h-4ZM48 16h4v4h-4ZM52 16h4v4h-4ZM64 16h4v4h-4ZM68 16h4v4h-4ZM72 16h4v4h-4ZM76 16h4v4h-4ZM80 16h4v4h-4ZM44 20h4v4h-4ZM48 20h4v4h-4ZM52 20h4v4h-4ZM64 20h4v4h-4ZM68 20h4v4h-4ZM72 20h4v4h-4ZM76 20h4v4h-4ZM80 20h4v4h-4ZM44 24h4v4h-4ZM48 24h4v4h-4ZM52 24h4v4h-4ZM56 24h4v4h-4ZM60 24h4v4h-4ZM64 24h4v4h-4ZM68 24h4v4h-4ZM72 24h4v4h-4ZM76 24h4v4h-4ZM80 24h4v4h-4ZM44 28h4v4h-4ZM48 28h4v4h-4ZM52 28h4v4h-4ZM56 28h4v4h-4ZM60 28h4v4h-4ZM64 28h4v4h-4ZM68 28h4v4h-4ZM72 28h4v4h-4ZM16 32h4v4h-4ZM32 32h4v4h-4ZM36 32h4v4h-4ZM40 32h4v4h-4ZM44 32h4v4h-4ZM48 32h4v4h-4ZM52 32h4v4h-4ZM56 32h4v4h-4ZM60 32h4v4h-4ZM16 36h4v4h-4ZM20 36h4v4h-4ZM32 36h4v4h-4ZM36 36h4v4h-4ZM40 36h4v4h-4ZM44 36h4v4h-4ZM48 36h4v4h-4ZM52 36h4v4h-4ZM56 36h4v4h-4ZM60 36h4v4h-4ZM64 36h4v4h-4ZM76 36h4v4h-4ZM12 40h4v4h-4ZM16 40h4v4h-4ZM20 40h4v4h-4ZM32 40h4v4h-4ZM36 40h4v4h-4ZM40 40h4v4h-4ZM44 40h4v4h-4ZM48 40h4v4h-4ZM52 40h4v4h-4ZM56 40h4v4h-4ZM60 40h4v4h-4ZM64 40h4v4h-4ZM68 40h4v4h-4ZM76 40h4v4h-4ZM80 40h4v4h-4ZM8 44h4v4h-4ZM12 44h4v4h-4ZM16 44h4v4h-4ZM20 44h4v4h-4ZM24 44h4v4h-4ZM28 44h4v4h-4ZM32 44h4v4h-4ZM36 44h4v4h-4ZM40 44h4v4h-4ZM44 44h4v4h-4ZM48 44h4v4h-4ZM52 44h4v4h-4ZM56 44h4v4h-4ZM60 44h4v4h-4ZM64 44h4v4h-4ZM68 44h4v4h-4ZM72 44h4v4h-4ZM76 44h4v4h-4ZM4 48h4v4h-4ZM8 48h4v4h-4ZM12 48h4v4h-4ZM16 48h4v4h-4ZM20 48h4v4h-4ZM24 48h4v4h-4ZM28 48h4v4h-4ZM32 48h4v4h-4ZM36 48h4v4h-4ZM40 48h4v4h-4ZM44 48h4v4h-4ZM48 48h4v4h-4ZM52 48h4v4h-4ZM56 48h4v4h-4ZM60 48h4v4h-4ZM64 48h4v4h-4ZM68 48h4v4h-4ZM72 48h4v4h-4ZM76 48h4v4h-4ZM4 52h4v4h-4ZM8 52h4v4h-4ZM12 52h4v4h-4ZM16 52h4v4h-4ZM20 52h4v4h-4ZM24 52h4v4h-4ZM28 52h4v4h-4ZM32 52h4v4h-4ZM36 52h4v4h-4ZM40 52h4v4h-4ZM44 52h4v4h-4ZM48 52h4v4h-4ZM52 52h4v4h-4ZM56 52h4v4h-4ZM60 52h4v4h-4ZM64 52h4v4h-4ZM68 52h4v4h-4ZM72 52h4v4h-4ZM8 56h4v4h-4ZM12 56h4v4h-4ZM16 56h4v4h-4ZM20 56h4v4h-4ZM24 56h4v4h-4ZM28 56h4v4h-4ZM32 56h4v4h-4ZM36 56h4v4h-4ZM40 56h4v4h-4ZM44 56h4v4h-4ZM48 56h4v4h-4ZM52 56h4v4h-4ZM56 56h4v4h-4ZM60 56h4v4h-4ZM64 56h4v4h-4ZM68 56h4v4h-4ZM12 60h4v4h-4ZM16 60h4v4h-4ZM20 60h4v4h-4ZM24 60h4v4h-4ZM28 60h4v4h-4ZM32 60h4v4h-4ZM36 60h4v4h-4ZM40 60h4v4h-4ZM44 60h4v4h-4ZM48 60h4v4h-4ZM52 60h4v4h-4ZM56 60h4v4h-4ZM60 60h4v4h-4ZM64 60h4v4h-4ZM68 60h4v4h-4ZM16 64h4v4h-4ZM20 64h4v4h-4ZM24 64h4v4h-4ZM28 64h4v4h-4ZM32 64h4v4h-4ZM36 64h4v4h-4ZM40 64h4v4h-4ZM44 64h4v4h-4ZM48 64h4v4h-4ZM52 64h4v4h-4ZM56 64h4v4h-4ZM60 64h4v4h-4ZM64 64h4v4h-4ZM68 64h4v4h-4ZM20 68h4v4h-4ZM24 68h4v4h-4ZM28 68h4v4h-4ZM32 68h4v4h-4ZM36 68h4v4h-4ZM48 68h4v4h-4ZM52 68h4v4h-4ZM56 68h4v4h-4ZM60 68h4v4h-4ZM64 68h4v4h-4ZM24 72h4v4h-4ZM28 72h4v4h-4ZM32 72h4v4h-4ZM36 72h4v4h-4ZM52 72h4v4h-4ZM56 72h4v4h-4ZM60 72h4v4h-4ZM64 72h4v4h-4ZM24 76h4v4h-4ZM28 76h4v4h-4ZM32 76h4v4h-4ZM36 76h4v4h-4ZM52 76h4v4h-4ZM56 76h4v4h-4ZM60 76h4v4h-4ZM64 76h4v4h-4ZM28 80h4v4h-4ZM32 80h4v4h-4ZM56 80h4v4h-4ZM60 80h4v4h-4ZM28 84h4v4h-4ZM32 84h4v4h-4ZM56 84h4v4h-4ZM60 84h4v4h-4Z" />
  <path fill="#6f35f4" d="M56 16h4v4h-4ZM60 16h4v4h-4ZM56 20h4v4h-4ZM60 20h4v4h-4Z" />
</svg>
